<svg width="1920" height="1080" viewBox="0 0 1920 1080" fill="none" xmlns="http://www.w3.org/2000/svg">
<rect width="1920" height="1080" fill="#C9C9C9"/>
<g clip-path="url(#clip0_961_157488)">
<path d="M53.3746 1080H48.7333V1077.71H53.3746V1080ZM76.5809 1080H71.9397V1077.71H76.5809V1080ZM136.917 1080H132.276V1073.13H136.917V1080ZM155.483 1080H153.162V1075.42H155.483V1080ZM164.765 1080H160.124V1077.71H164.765V1080ZM174.048 1080H169.406V1077.71H174.048V1080ZM213.498 1077.71H215.819V1080H211.178V1077.71H208.857V1075.42H213.498V1077.71ZM227.422 1080H222.781V1077.71H227.422V1080ZM232.063 1080H229.743V1077.71H232.063V1080ZM236.705 1080H234.384V1077.71H236.705V1080ZM252.949 1080H248.308V1077.71H252.949V1080ZM262.232 1080H255.27V1077.71H262.232V1080ZM266.873 1080H264.552V1077.71H266.873V1080ZM287.759 1080H283.117V1077.71H287.759V1080ZM475.73 1080H468.768V1077.71H475.73V1080ZM496.616 1080H489.654V1077.71H496.616V1080ZM563.914 1080H559.273V1077.71H563.914V1080ZM570.876 1080H568.555V1077.71H570.876V1080ZM614.968 1080H612.648V1077.71H614.968V1080ZM645.136 1080H640.495V1077.71H645.136V1080ZM756.527 1080H751.886V1077.71H754.206V1075.42H756.527V1080ZM793.657 1080H789.016V1077.71H793.657V1080ZM807.581 1080H805.26V1077.71H807.581V1080ZM833.108 1080H828.467V1077.71H833.108V1080ZM847.032 1077.71H844.711V1080H840.07V1077.71H842.39V1075.42H847.032V1077.71ZM886.482 1080H881.841V1077.71H886.482V1080ZM937.536 1080H932.895V1077.71H937.536V1080ZM958.422 1080H951.46V1077.71H958.422V1080ZM965.384 1080H960.743V1077.71H965.384V1080ZM1090.7 1080H1086.06V1077.71H1090.7V1080ZM1292.59 1080H1285.63V1077.71H1292.59V1080ZM1475.92 1080H1471.28V1077.71H1475.92V1080ZM1501.45 1080H1496.81V1070.84H1501.45V1080ZM1552.5 1080H1547.86V1077.71H1552.5V1080ZM1849.55 1080H1844.9V1070.84H1849.55V1080ZM1889 1080H1882.03V1077.71H1889V1080ZM1900.6 1073.13H1898.28V1075.42H1900.6V1077.71H1898.28V1080H1895.96V1077.71H1893.64V1075.42H1895.96V1073.13H1893.64V1070.84H1900.6V1073.13ZM48.7333 1077.71H44.0921V1075.42H48.7333V1077.71ZM352.736 1075.42H355.057V1077.71H350.416V1073.13H352.736V1075.42ZM408.432 1077.71H403.79V1075.42H406.111V1073.13H408.432V1077.71ZM505.898 1077.71H503.578V1075.42H505.898V1077.71ZM529.105 1075.42H531.425V1077.71H526.784V1073.13H529.105V1075.42ZM577.838 1077.71H575.517V1075.42H577.838V1077.71ZM626.571 1075.42H628.892V1077.71H624.251V1073.13H626.571V1075.42ZM652.098 1077.71H647.457V1075.42H649.778V1073.13H652.098V1077.71ZM703.152 1075.42H705.473V1077.71H700.832V1073.13H703.152V1075.42ZM902.727 1075.42H900.406V1077.71H898.086V1073.13H902.727V1075.42ZM946.819 1075.42H944.498V1077.71H942.178V1073.13H946.819V1075.42ZM1434.15 1077.71H1429.51V1073.13H1434.15V1077.71ZM1522.34 1077.71H1517.7V1073.13H1522.34V1077.71ZM1928.45 1073.13H1926.13V1077.71H1921.49V1070.84H1928.45V1073.13ZM122.994 1075.42H118.352V1073.13H122.994V1075.42ZM255.27 1075.42H252.949V1073.13H255.27V1075.42ZM380.584 1075.42H378.263V1073.13H380.584V1075.42ZM517.502 1075.42H515.181V1073.13H517.502V1075.42ZM533.746 1075.42H531.425V1073.13H533.746V1075.42ZM549.99 1075.42H547.67V1073.13H549.99V1075.42ZM631.213 1075.42H628.892V1073.13H631.213V1075.42ZM640.495 1075.42H638.174V1073.13H640.495V1075.42ZM83.5428 1073.13H78.9016V1070.84H83.5428V1073.13ZM102.108 1073.13H99.7873V1070.84H97.4667V1068.54H99.7873V1066.25H102.108V1073.13ZM116.032 1070.84H118.352V1073.13H113.711V1068.54H116.032V1070.84ZM132.276 1073.13H127.635V1070.84H129.956V1068.54H132.276V1073.13ZM176.368 1073.13H171.727V1070.84H174.048V1068.54H176.368V1073.13ZM218.14 1070.84H232.063V1073.13H215.819V1068.54H218.14V1070.84ZM252.949 1073.13H248.308V1070.84H252.949V1073.13ZM524.463 1073.13H522.143V1070.84H524.463V1073.13ZM647.457 1073.13H645.136V1070.84H647.457V1073.13ZM659.06 1073.13H656.74V1070.84H659.06V1073.13ZM828.467 1073.13H823.825V1070.84H828.467V1073.13ZM907.368 1073.13H902.727V1070.84H905.047V1068.54H907.368V1073.13ZM925.933 1073.13H923.613V1068.54H925.933V1073.13ZM951.46 1073.13H946.819V1070.84H949.14V1068.54H951.46V1073.13ZM1274.03 1073.13H1269.39V1070.84H1274.03V1073.13ZM1364.53 1070.84H1366.85V1073.13H1362.21V1068.54H1364.53V1070.84ZM1552.5 1073.13H1547.86V1070.84H1552.5V1073.13ZM62.6571 1070.84H58.0159V1068.54H60.3365V1066.25H62.6571V1070.84ZM197.254 1070.84H194.933V1066.25H197.254V1070.84ZM213.498 1070.84H211.178V1066.25H213.498V1070.84ZM241.346 1070.84H236.705V1068.54H239.025V1066.25H241.346V1070.84ZM264.552 1068.54H266.873V1070.84H262.232V1066.25H264.552V1068.54ZM387.546 1070.84H385.225V1068.54H387.546V1070.84ZM408.432 1068.54H410.752V1070.84H406.111V1066.25H408.432V1068.54ZM440.921 1070.84H438.6V1068.54H440.921V1070.84ZM793.657 1070.84H789.016V1068.54H791.336V1066.25H793.657V1070.84ZM816.863 1068.54H819.184V1070.84H814.543V1066.25H816.863V1068.54ZM860.955 1070.84H858.635V1066.25H860.955V1070.84ZM1301.88 1070.84H1299.56V1068.54H1297.23V1066.25H1301.88V1070.84ZM1369.17 1070.84H1366.85V1068.54H1369.17V1070.84ZM1582.67 1068.54H1584.99V1070.84H1578.03V1068.54H1580.35V1066.25H1582.67V1068.54ZM1675.5 1068.54H1677.82V1070.84H1670.86V1068.54H1673.18V1066.25H1675.5V1068.54ZM1735.83 1068.54H1738.16V1070.84H1733.51V1066.25H1735.83V1068.54ZM1789.21 1068.54H1791.53V1070.84H1784.57V1068.54H1786.89V1066.25H1789.21V1068.54ZM1882.03 1068.54H1877.39V1070.84H1875.07V1068.54H1872.75V1066.25H1882.03V1068.54ZM92.8254 1068.54H83.5428V1066.25H92.8254V1068.54ZM150.841 1068.54H148.521V1066.25H146.2V1063.96H148.521V1061.67H150.841V1068.54ZM598.724 1066.25H596.403V1068.54H594.082V1063.96H598.724V1066.25ZM770.451 1068.54H765.809V1066.25H770.451V1068.54ZM1366.85 1068.54H1364.53V1066.25H1366.85V1068.54ZM1740.48 1068.54H1738.16V1066.25H1740.48V1068.54ZM97.4667 1066.25H92.8254V1063.96H97.4667V1066.25ZM187.971 1066.25H183.33V1063.96H187.971V1066.25ZM320.248 1066.25H315.606V1063.96H320.248V1066.25ZM352.736 1066.25H348.095V1063.96H352.736V1066.25ZM459.486 1063.96H461.806V1066.25H457.165V1061.67H459.486V1063.96ZM494.295 1066.25H487.333V1063.96H494.295V1066.25ZM589.441 1066.25H582.479V1063.96H589.441V1066.25ZM666.022 1063.96H668.343V1066.25H663.701V1061.67H666.022V1063.96ZM872.559 1066.25H867.917V1063.96H872.559V1066.25ZM1209.05 1066.25H1202.09V1063.96H1209.05V1066.25ZM1220.65 1066.25H1216.01V1063.96H1220.65V1066.25ZM1285.63 1066.25H1278.67V1063.96H1285.63V1066.25ZM1450.4 1066.25H1445.76V1063.96H1450.4V1066.25ZM1501.45 1066.25H1496.81V1063.96H1501.45V1066.25ZM1540.9 1066.25H1526.98V1063.96H1540.9V1066.25ZM1710.31 1066.25H1703.35V1063.96H1710.31V1066.25ZM1770.64 1066.25H1766V1063.96H1770.64V1066.25ZM1824.02 1066.25H1817.06V1063.96H1824.02V1066.25ZM1898.28 1063.96H1900.6V1066.25H1893.64V1063.96H1895.96V1061.67H1898.28V1063.96ZM20.8857 1061.67H23.2063V1063.96H18.5651V1059.38H20.8857V1061.67ZM37.1302 1063.96H32.4889V1061.67H34.8095V1059.38H37.1302V1063.96ZM171.727 1061.67H174.048V1063.96H169.406V1059.38H171.727V1061.67ZM208.857 1061.67H206.536V1063.96H204.216V1059.38H208.857V1061.67ZM211.178 1063.96H208.857V1061.67H211.178V1063.96ZM236.705 1063.96H232.063V1059.38H236.705V1063.96ZM252.949 1063.96H250.629V1061.67H252.949V1063.96ZM276.156 1063.96H271.514V1059.38H276.156V1063.96ZM280.797 1063.96H278.476V1059.38H280.797V1063.96ZM294.721 1061.67H297.041V1063.96H292.4V1059.38H294.721V1061.67ZM401.47 1061.67H403.79V1063.96H399.149V1059.38H401.47V1061.67ZM424.676 1063.96H422.355V1061.67H420.035V1063.96H417.714V1059.38H424.676V1063.96ZM454.844 1063.96H450.203V1059.38H454.844V1063.96ZM471.089 1063.96H468.768V1061.67H471.089V1063.96ZM515.181 1061.67H512.86V1063.96H510.54V1061.67H508.219V1059.38H515.181V1061.67ZM570.876 1061.67H568.555V1063.96H566.235V1061.67H563.914V1059.38H570.876V1061.67ZM672.984 1063.96H670.663V1061.67H666.022V1059.38H672.984V1063.96ZM763.489 1063.96H761.168V1059.38H763.489V1063.96ZM782.054 1061.67H784.375V1063.96H779.733V1059.38H782.054V1061.67ZM807.581 1063.96H802.94V1061.67H805.26V1059.38H807.581V1063.96ZM844.711 1061.67H847.032V1063.96H842.39V1059.38H844.711V1061.67ZM884.162 1061.67H886.482V1063.96H881.841V1057.09H879.521V1054.8H884.162V1061.67ZM965.384 1063.96H963.063V1061.67H965.384V1063.96ZM983.949 1059.38H986.27V1063.96H983.949V1061.67H981.628V1057.09H979.308V1054.8H983.949V1059.38ZM1002.51 1063.96H1000.19V1061.67H1002.51V1063.96ZM1144.07 1061.67H1141.75V1063.96H1139.43V1059.38H1144.07V1061.67ZM1545.54 1061.67H1543.22V1063.96H1540.9V1059.38H1545.54V1061.67ZM1547.86 1063.96H1545.54V1061.67H1547.86V1063.96ZM1580.35 1063.96H1578.03V1061.67H1580.35V1063.96ZM1584.99 1063.96H1582.67V1061.67H1580.35V1059.38H1584.99V1063.96ZM109.07 1061.67H104.429V1059.38H109.07V1061.67ZM118.352 1061.67H113.711V1059.38H118.352V1061.67ZM167.086 1061.67H162.444V1059.38H167.086V1061.67ZM213.498 1061.67H211.178V1059.38H213.498V1061.67ZM250.629 1061.67H248.308V1059.38H250.629V1061.67ZM255.27 1061.67H252.949V1059.38H255.27V1061.67ZM406.111 1061.67H403.79V1059.38H406.111V1061.67ZM556.952 1061.67H554.632V1059.38H556.952V1061.67ZM601.044 1061.67H598.724V1059.38H601.044V1061.67ZM617.289 1061.67H614.968V1059.38H617.289V1061.67ZM918.971 1061.67H914.33V1059.38H918.971V1061.67ZM963.063 1061.67H958.422V1059.38H963.063V1061.67ZM997.873 1061.67H995.552V1059.38H997.873V1061.67ZM1113.9 1061.67H1109.26V1059.38H1113.9V1061.67ZM1153.36 1061.67H1146.39V1059.38H1153.36V1061.67ZM1185.84 1061.67H1181.2V1059.38H1185.84V1061.67ZM1835.62 1057.09H1837.94V1061.67H1833.3V1054.8H1835.62V1057.09ZM1905.24 1061.67H1900.6V1052.51H1905.24V1061.67ZM1921.49 1061.67H1916.84V1059.38H1921.49V1061.67ZM9.28254 1059.38H4.64127V1057.09H9.28254V1059.38ZM71.9397 1059.38H67.2984V1057.09H71.9397V1059.38ZM81.2222 1057.09H83.5428V1059.38H78.9016V1054.8H81.2222V1057.09ZM92.8254 1057.09H90.5048V1059.38H88.1841V1054.8H92.8254V1057.09ZM134.597 1057.09H141.559V1059.38H132.276V1054.8H134.597V1057.09ZM150.841 1059.38H146.2V1057.09H150.841V1059.38ZM160.124 1059.38H155.483V1057.09H160.124V1059.38ZM348.095 1059.38H343.454V1057.09H348.095V1059.38ZM399.149 1059.38H392.187V1057.09H399.149V1059.38ZM529.105 1059.38H526.784V1057.09H529.105V1059.38ZM705.473 1059.38H698.511V1057.09H705.473V1059.38ZM865.597 1057.09H867.917V1059.38H863.276V1054.8H865.597V1057.09ZM951.46 1059.38H949.14V1054.8H951.46V1059.38ZM956.101 1059.38H953.781V1054.8H956.101V1059.38ZM1051.25 1057.09H1053.57V1059.38H1048.93V1054.8H1051.25V1057.09ZM1072.13 1059.38H1069.81V1057.09H1067.49V1054.8H1072.13V1059.38ZM1362.21 1059.38H1357.57V1057.09H1359.89V1054.8H1362.21V1059.38ZM1383.1 1057.09H1385.42V1059.38H1380.78V1054.8H1383.1V1057.09ZM1533.94 1059.38H1529.3V1057.09H1533.94V1059.38ZM1877.39 1059.38H1872.75V1052.51H1877.39V1059.38ZM58.0159 1054.8H55.6952V1057.09H53.3746V1043.34H58.0159V1054.8ZM76.5809 1054.8H74.2603V1057.09H71.9397V1052.51H76.5809V1054.8ZM155.483 1054.8H153.162V1057.09H150.841V1052.51H155.483V1054.8ZM331.851 1057.09H327.209V1052.51H331.851V1057.09ZM380.584 1054.8H378.263V1057.09H375.943V1052.51H380.584V1054.8ZM533.746 1057.09H531.425V1054.8H533.746V1057.09ZM635.854 1057.09H633.533V1054.8H635.854V1057.09ZM888.803 1057.09H886.482V1054.8H884.162V1052.51H888.803V1057.09ZM1494.49 1054.8H1496.81V1057.09H1492.17V1054.8H1489.85V1052.51H1494.49V1054.8ZM1566.43 1057.09H1564.11V1054.8H1561.79V1057.09H1559.47V1052.51H1566.43V1057.09ZM146.2 1054.8H141.559V1052.51H146.2V1054.8ZM587.121 1054.8H584.8V1052.51H587.121V1054.8ZM1102.3 1054.8H1095.34V1052.51H1102.3V1054.8ZM1893.64 1054.8H1889V1052.51H1893.64V1054.8ZM1933.09 1054.8H1926.13V1052.51H1933.09V1054.8ZM13.9238 1052.51H9.28254V1050.22H13.9238V1052.51ZM83.5428 1050.22H81.2222V1052.51H78.9016V1047.92H83.5428V1050.22ZM118.352 1050.22H116.032V1052.51H113.711V1047.92H118.352V1050.22ZM150.841 1052.51H148.521V1050.22H146.2V1047.92H150.841V1052.51ZM225.102 1052.51H222.781V1050.22H225.102V1052.51ZM276.156 1052.51H273.835V1050.22H276.156V1052.51ZM280.797 1052.51H278.476V1050.22H280.797V1052.51ZM301.682 1052.51H299.362V1050.22H301.682V1052.51ZM308.644 1052.51H304.003V1050.22H308.644V1052.51ZM320.248 1052.51H315.606V1050.22H320.248V1052.51ZM413.073 1052.51H408.432V1050.22H413.073V1052.51ZM478.051 1050.22H482.692V1052.51H475.73V1047.92H478.051V1050.22ZM545.349 1052.51H543.029V1050.22H545.349V1052.51ZM621.93 1050.22H624.251V1052.51H619.609V1047.92H621.93V1050.22ZM647.457 1052.51H642.816V1050.22H647.457V1052.51ZM663.701 1050.22H661.381V1052.51H659.06V1047.92H663.701V1050.22ZM856.314 1050.22H858.635V1052.51H853.994V1045.63H856.314V1050.22ZM923.613 1052.51H921.292V1050.22H923.613V1052.51ZM928.254 1052.51H925.933V1050.22H928.254V1052.51ZM946.819 1050.22H944.498V1052.51H942.178V1047.92H946.819V1050.22ZM1489.85 1052.51H1482.89V1050.22H1489.85V1052.51ZM1652.29 1052.51H1645.33V1050.22H1652.29V1052.51ZM1712.63 1052.51H1707.99V1050.22H1712.63V1052.51ZM1766 1052.51H1759.04V1050.22H1766V1052.51ZM1833.3 1050.22H1830.98V1052.51H1828.66V1041.05H1833.3V1050.22ZM76.5809 1047.92H74.2603V1050.22H71.9397V1045.63H76.5809V1047.92ZM134.597 1050.22H132.276V1045.63H134.597V1050.22ZM155.483 1050.22H153.162V1047.92H150.841V1045.63H155.483V1050.22ZM178.689 1050.22H176.368V1047.92H171.727V1050.22H169.406V1045.63H178.689V1050.22ZM204.216 1047.92H201.895V1050.22H199.575V1045.63H204.216V1047.92ZM264.552 1050.22H259.911V1047.92H264.552V1050.22ZM297.041 1047.92H294.721V1050.22H292.4V1045.63H297.041V1047.92ZM336.492 1050.22H334.171V1047.92H336.492V1050.22ZM375.943 1047.92H373.622V1050.22H371.302V1045.63H375.943V1047.92ZM382.905 1050.22H380.584V1047.92H378.263V1045.63H382.905V1050.22ZM399.149 1050.22H396.829V1047.92H399.149V1050.22ZM406.111 1050.22H401.47V1047.92H406.111V1050.22ZM443.241 1047.92H440.921V1050.22H438.6V1047.92H436.279V1045.63H443.241V1047.92ZM496.616 1047.92H494.295V1050.22H491.975V1045.63H496.616V1047.92ZM545.349 1047.92H543.029V1050.22H540.708V1047.92H538.387V1045.63H545.349V1047.92ZM563.914 1050.22H561.594V1047.92H559.273V1045.63H563.914V1050.22ZM677.625 1047.92H675.305V1050.22H672.984V1045.63H677.625V1047.92ZM705.473 1050.22H698.511V1047.92H705.473V1050.22ZM763.489 1050.22H761.168V1045.63H763.489V1050.22ZM886.482 1047.92H884.162V1050.22H881.841V1045.63H886.482V1047.92ZM925.933 1050.22H923.613V1047.92H925.933V1050.22ZM965.384 1050.22H960.743V1045.63H965.384V1050.22ZM1074.45 1050.22H1072.13V1047.92H1067.49V1045.63H1074.45V1050.22ZM1106.94 1047.92H1104.62V1050.22H1102.3V1047.92H1099.98V1045.63H1104.62V1043.34H1102.3V1041.05H1106.94V1047.92ZM1178.88 1050.22H1176.56V1047.92H1178.88V1050.22ZM1183.52 1050.22H1181.2V1047.92H1178.88V1045.63H1183.52V1050.22ZM1262.43 1050.22H1255.46V1047.92H1262.43V1050.22ZM1552.5 1047.92H1550.18V1050.22H1547.86V1043.34H1552.5V1047.92ZM113.711 1047.92H109.07V1045.63H113.711V1047.92ZM283.117 1045.63H285.438V1047.92H280.797V1041.05H283.117V1045.63ZM341.133 1047.92H338.813V1045.63H341.133V1047.92ZM355.057 1047.92H352.736V1045.63H355.057V1047.92ZM603.365 1047.92H601.044V1045.63H603.365V1047.92ZM670.663 1047.92H668.343V1045.63H670.663V1047.92ZM907.368 1047.92H902.727V1045.63H907.368V1047.92ZM1058.21 1047.92H1053.57V1045.63H1058.21V1047.92ZM1176.56 1047.92H1174.24V1045.63H1176.56V1047.92ZM1870.43 1043.34H1872.75V1045.63H1870.43V1047.92H1865.79V1045.63H1868.11V1043.34H1865.79V1041.05H1870.43V1043.34ZM1909.88 1047.92H1905.24V1045.63H1909.88V1047.92ZM1933.09 1047.92H1928.45V1045.63H1933.09V1047.92ZM44.0921 1045.63H39.4508V1043.34H44.0921V1045.63ZM97.4667 1045.63H95.146V1043.34H97.4667V1045.63ZM359.698 1045.63H357.378V1043.34H359.698V1045.63ZM408.432 1043.34H410.752V1045.63H406.111V1041.05H408.432V1043.34ZM433.959 1043.34H436.279V1045.63H431.638V1041.05H433.959V1043.34ZM461.806 1043.34H464.127V1045.63H459.486V1041.05H461.806V1043.34ZM485.013 1043.34H491.975V1045.63H482.692V1041.05H485.013V1043.34ZM515.181 1045.63H508.219V1043.34H515.181V1045.63ZM645.136 1043.34H647.457V1045.63H640.495V1043.34H642.816V1041.05H645.136V1043.34ZM654.419 1045.63H652.098V1043.34H649.778V1041.05H654.419V1045.63ZM717.076 1045.63H714.755V1043.34H717.076V1045.63ZM814.543 1043.34H812.222V1045.63H809.901V1041.05H814.543V1043.34ZM1508.41 1045.63H1482.89V1043.34H1508.41V1045.63ZM4.64127 1043.34H2.32063V1041.05H0V1038.76H4.64127V1043.34ZM23.2063 1043.34H20.8857V1041.05H18.5651V1036.47H23.2063V1043.34ZM34.8095 1043.34H32.4889V1041.05H34.8095V1043.34ZM39.4508 1043.34H37.1302V1041.05H39.4508V1043.34ZM53.3746 1041.05H51.054V1043.34H48.7333V1038.76H53.3746V1041.05ZM97.4667 1041.05H95.146V1043.34H92.8254V1038.76H97.4667V1041.05ZM139.238 1043.34H136.917V1038.76H139.238V1043.34ZM213.498 1041.05H211.178V1043.34H208.857V1038.76H213.498V1041.05ZM250.629 1043.34H245.987V1041.05H250.629V1043.34ZM264.552 1043.34H262.232V1041.05H259.911V1038.76H264.552V1043.34ZM292.4 1041.05H294.721V1043.34H290.079V1038.76H292.4V1041.05ZM320.248 1043.34H313.286V1041.05H320.248V1043.34ZM382.905 1043.34H380.584V1041.05H382.905V1043.34ZM424.676 1043.34H422.355V1041.05H424.676V1043.34ZM828.467 1041.05H826.146V1043.34H823.825V1038.76H828.467V1041.05ZM847.032 1043.34H844.711V1041.05H842.39V1038.76H847.032V1043.34ZM963.063 1043.34H958.422V1041.05H963.063V1043.34ZM1327.4 1043.34H1322.76V1041.05H1327.4V1043.34ZM1540.9 1041.05H1538.58V1043.34H1536.26V1041.05H1533.94V1038.76H1540.9V1041.05ZM37.1302 1041.05H34.8095V1038.76H37.1302V1041.05ZM83.5428 1041.05H78.9016V1038.76H83.5428V1041.05ZM157.803 1041.05H153.162V1038.76H157.803V1041.05ZM176.368 1041.05H171.727V1038.76H176.368V1041.05ZM232.063 1041.05H227.422V1038.76H232.063V1041.05ZM241.346 1041.05H236.705V1036.47H241.346V1041.05ZM306.324 1041.05H304.003V1038.76H306.324V1041.05ZM445.562 1041.05H443.241V1038.76H445.562V1041.05ZM649.778 1041.05H647.457V1038.76H645.136V1036.47H649.778V1041.05ZM724.038 1041.05H721.717V1038.76H724.038V1041.05ZM765.809 1041.05H761.168V1038.76H763.489V1036.47H765.809V1041.05ZM912.009 1041.05H907.368V1038.76H909.689V1036.47H912.009V1041.05ZM1048.93 1038.76H1051.25V1041.05H1046.61V1036.47H1048.93V1038.76ZM1158 1041.05H1153.36V1038.76H1158V1041.05ZM1828.66 1041.05H1821.7V1038.76H1828.66V1041.05ZM1849.55 1041.05H1844.9V1038.76H1849.55V1041.05ZM1933.09 1041.05H1926.13V1038.76H1933.09V1041.05ZM11.6032 1036.47H13.9238V1038.76H4.64127V1036.47H9.28254V1034.18H11.6032V1036.47ZM71.9397 1036.47H69.619V1038.76H67.2984V1031.89H71.9397V1036.47ZM132.276 1038.76H129.956V1036.47H132.276V1038.76ZM134.597 1031.89H136.917V1038.76H134.597V1034.18H132.276V1029.6H134.597V1031.89ZM310.965 1038.76H308.644V1036.47H310.965V1038.76ZM366.66 1036.47H368.981V1038.76H364.34V1034.18H366.66V1036.47ZM524.463 1038.76H522.143V1036.47H524.463V1038.76ZM538.387 1038.76H536.067V1036.47H538.387V1038.76ZM552.311 1038.76H549.99V1036.47H552.311V1038.76ZM568.555 1036.47H570.876V1038.76H563.914V1036.47H566.235V1034.18H568.555V1036.47ZM691.549 1038.76H686.908V1036.47H689.228V1034.18H691.549V1038.76ZM728.679 1038.76H726.359V1036.47H728.679V1038.76ZM1102.3 1036.47H1099.98V1038.76H1097.66V1034.18H1102.3V1036.47ZM1285.63 1036.47H1283.31V1038.76H1280.99V1034.18H1285.63V1036.47ZM1443.43 1031.89H1445.76V1034.18H1443.43V1038.76H1438.79V1029.6H1441.11V1027.31H1443.43V1031.89ZM1485.21 1036.47H1489.85V1038.76H1482.89V1034.18H1485.21V1036.47ZM1501.45 1038.76H1496.81V1029.6H1499.13V1027.31H1501.45V1038.76ZM1552.5 1038.76H1547.86V1031.89H1552.5V1038.76ZM171.727 1036.47H167.086V1027.31H171.727V1036.47ZM227.422 1036.47H220.46V1034.18H227.422V1036.47ZM259.911 1034.18H257.59V1036.47H255.27V1031.89H259.911V1034.18ZM264.552 1036.47H259.911V1034.18H264.552V1036.47ZM304.003 1036.47H299.362V1034.18H304.003V1036.47ZM329.53 1036.47H324.889V1034.18H329.53V1036.47ZM348.095 1036.47H343.454V1034.18H348.095V1036.47ZM471.089 1036.47H468.768V1034.18H466.448V1031.89H471.089V1036.47ZM487.333 1036.47H485.013V1034.18H487.333V1036.47ZM501.257 1036.47H498.936V1034.18H501.257V1036.47ZM512.86 1036.47H510.54V1034.18H512.86V1036.47ZM589.441 1034.18H587.121V1036.47H584.8V1031.89H589.441V1034.18ZM608.006 1036.47H605.686V1034.18H608.006V1036.47ZM809.901 1036.47H805.26V1034.18H809.901V1036.47ZM967.705 1036.47H965.384V1034.18H967.705V1036.47ZM1916.84 1036.47H1909.88V1034.18H1916.84V1036.47ZM85.8635 1031.89H83.5428V1034.18H78.9016V1031.89H81.2222V1029.6H85.8635V1031.89ZM102.108 1034.18H97.4667V1031.89H99.7873V1029.6H102.108V1034.18ZM406.111 1034.18H399.149V1031.89H406.111V1034.18ZM744.924 1031.89H747.244V1034.18H742.603V1029.6H744.924V1031.89ZM851.673 1031.89H853.994V1034.18H849.352V1029.6H851.673V1031.89ZM965.384 1034.18H960.743V1031.89H965.384V1034.18ZM981.628 1031.89H983.949V1034.18H979.308V1029.6H981.628V1031.89ZM1067.49 1034.18H1062.85V1031.89H1067.49V1034.18ZM1531.62 1029.6H1533.94V1034.18H1526.98V1031.89H1529.3V1027.31H1531.62V1029.6ZM1895.96 1031.89H1900.6V1034.18H1893.64V1029.6H1895.96V1031.89ZM27.8476 1031.89H23.2063V1029.6H25.527V1027.31H27.8476V1031.89ZM37.1302 1031.89H32.4889V1029.6H34.8095V1027.31H37.1302V1031.89ZM429.317 1031.89H426.997V1029.6H429.317V1031.89ZM559.273 1031.89H556.952V1029.6H559.273V1031.89ZM619.609 1031.89H617.289V1029.6H619.609V1031.89ZM670.663 1031.89H668.343V1029.6H670.663V1031.89ZM682.267 1031.89H679.946V1029.6H682.267V1031.89ZM779.733 1029.6H782.054V1031.89H775.092V1029.6H777.413V1027.31H779.733V1029.6ZM888.803 1031.89H884.162V1029.6H886.482V1027.31H888.803V1031.89ZM953.781 1029.6H951.46V1031.89H949.14V1027.31H953.781V1029.6ZM986.27 1031.89H983.949V1029.6H986.27V1031.89ZM1053.57 1029.6H1051.25V1031.89H1048.93V1027.31H1053.57V1029.6ZM1571.07 1031.89H1566.43V1029.6H1568.75V1027.31H1571.07V1031.89ZM1856.51 1031.89H1854.19V1029.6H1856.51V1031.89ZM450.203 1029.6H447.882V1027.31H450.203V1029.6ZM624.251 1029.6H621.93V1027.31H624.251V1029.6ZM656.74 1029.6H654.419V1027.31H656.74V1029.6ZM691.549 1029.6H689.228V1027.31H691.549V1029.6ZM974.667 1029.6H970.025V1027.31H974.667V1029.6ZM1274.03 1029.6H1269.39V1027.31H1274.03V1029.6ZM1327.4 1029.6H1322.76V1027.31H1327.4V1029.6ZM1854.19 1029.6H1849.55V1027.31H1854.19V1029.6ZM1893.64 1029.6H1889V1027.31H1893.64V1029.6ZM1933.09 1029.6H1926.13V1027.31H1933.09V1029.6ZM4.64127 1027.31H0V1025.01H4.64127V1027.31ZM13.9238 1027.31H9.28254V1025.01H13.9238V1027.31ZM58.0159 1027.31H53.3746V1025.01H58.0159V1027.31ZM81.2222 1025.01H83.5428V1027.31H78.9016V1022.72H81.2222V1025.01ZM109.07 1018.14H106.749V1025.01H109.07V1027.31H104.429V1020.43H102.108V1018.14H104.429V1015.85H109.07V1018.14ZM116.032 1025.01H118.352V1027.31H113.711V1022.72H116.032V1025.01ZM132.276 1025.01H129.956V1027.31H127.635V1020.43H132.276V1025.01ZM183.33 1027.31H178.689V1025.01H183.33V1027.31ZM271.514 1027.31H266.873V1025.01H271.514V1027.31ZM387.546 1027.31H380.584V1025.01H387.546V1027.31ZM466.448 1027.31H464.127V1025.01H466.448V1027.31ZM633.533 1027.31H631.213V1025.01H633.533V1027.31ZM789.016 1027.31H784.375V1025.01H789.016V1027.31ZM812.222 1027.31H807.581V1025.01H812.222V1027.31ZM877.2 1027.31H872.559V1025.01H877.2V1027.31ZM1167.28 1025.01H1164.96V1027.31H1162.64V1022.72H1167.28V1025.01ZM1260.1 1025.01H1262.43V1027.31H1255.46V1025.01H1257.78V1022.72H1260.1V1025.01ZM1482.89 1027.31H1471.28V1025.01H1482.89V1027.31ZM1645.33 1027.31H1640.69V1025.01H1645.33V1027.31ZM1684.78 1027.31H1677.82V1025.01H1684.78V1027.31ZM1707.99 1027.31H1701.03V1025.01H1707.99V1027.31ZM1745.12 1027.31H1740.48V1025.01H1745.12V1027.31ZM1759.04 1027.31H1754.4V1025.01H1759.04V1027.31ZM1798.49 1027.31H1791.53V1025.01H1798.49V1027.31ZM1858.83 1025.01H1861.15V1027.31H1856.51V1022.72H1858.83V1025.01ZM64.9778 1022.72H67.2984V1025.01H62.6571V1020.43H64.9778V1022.72ZM234.384 1022.72H236.705V1025.01H232.063V1020.43H234.384V1022.72ZM389.867 1025.01H387.546V1022.72H389.867V1025.01ZM464.127 1025.01H459.486V1022.72H464.127V1025.01ZM638.174 1025.01H635.854V1022.72H638.174V1025.01ZM1499.13 1022.72H1501.45V1025.01H1496.81V1020.43H1499.13V1022.72ZM1568.75 1022.72H1571.07V1025.01H1566.43V1020.43H1568.75V1022.72ZM164.765 1018.14H167.086V1022.72H162.444V1015.85H164.765V1018.14ZM227.422 1022.72H220.46V1020.43H227.422V1022.72ZM255.27 1022.72H250.629V1020.43H252.949V1018.14H255.27V1022.72ZM348.095 1022.72H343.454V1020.43H348.095V1022.72ZM394.508 1022.72H392.187V1020.43H394.508V1022.72ZM433.959 1020.43H436.279V1022.72H431.638V1018.14H433.959V1020.43ZM489.654 1022.72H487.333V1020.43H489.654V1022.72ZM545.349 1020.43H547.67V1022.72H543.029V1018.14H545.349V1020.43ZM563.914 1020.43H566.235V1022.72H561.594V1018.14H563.914V1020.43ZM584.8 1020.43H582.479V1022.72H580.159V1018.14H584.8V1020.43ZM587.121 1022.72H584.8V1020.43H587.121V1022.72ZM698.511 1022.72H696.19V1020.43H698.511V1022.72ZM858.635 1022.72H853.994V1020.43H858.635V1022.72ZM946.819 1022.72H937.536V1020.43H946.819V1022.72ZM1041.96 1022.72H1037.32V1020.43H1041.96V1022.72ZM1195.13 1022.72H1190.49V1020.43H1195.13V1022.72ZM1573.39 1022.72H1571.07V1020.43H1573.39V1022.72ZM1872.75 1022.72H1865.79V1020.43H1872.75V1022.72ZM1921.49 1022.72H1916.84V1020.43H1921.49V1022.72ZM1933.09 1022.72H1928.45V1020.43H1933.09V1022.72ZM4.64127 1020.43H0V1018.14H4.64127V1020.43ZM37.1302 1020.43H34.8095V1018.14H37.1302V1020.43ZM71.9397 1020.43H67.2984V1018.14H71.9397V1020.43ZM92.8254 1018.14H90.5048V1020.43H88.1841V1015.85H92.8254V1018.14ZM192.613 1020.43H190.292V1018.14H192.613V1020.43ZM213.498 1020.43H208.857V1018.14H213.498V1020.43ZM280.797 1020.43H276.156V1018.14H280.797V1020.43ZM399.149 1020.43H396.829V1018.14H399.149V1020.43ZM424.676 1020.43H417.714V1018.14H424.676V1020.43ZM450.203 1020.43H443.241V1018.14H450.203V1020.43ZM468.768 1020.43H461.806V1018.14H468.768V1020.43ZM475.73 1020.43H471.089V1018.14H475.73V1020.43ZM505.898 1020.43H503.578V1018.14H505.898V1020.43ZM596.403 1020.43H589.441V1018.14H596.403V1020.43ZM640.495 1020.43H635.854V1018.14H640.495V1020.43ZM679.946 1020.43H672.984V1018.14H679.946V1020.43ZM703.152 1020.43H700.832V1018.14H703.152V1020.43ZM721.717 1020.43H719.397V1018.14H721.717V1020.43ZM742.603 1018.14H740.282V1020.43H737.962V1015.85H742.603V1018.14ZM770.451 1020.43H768.13V1018.14H765.809V1015.85H770.451V1020.43ZM779.733 1020.43H775.092V1018.14H779.733V1020.43ZM805.26 1018.14H802.94V1020.43H800.619V1015.85H805.26V1018.14ZM847.032 1020.43H842.39V1018.14H847.032V1020.43ZM867.917 1020.43H863.276V1018.14H867.917V1020.43ZM907.368 1015.85H909.689V1018.14H900.406V1020.43H898.086V1015.85H902.727V1013.56H907.368V1015.85ZM916.651 1020.43H914.33V1018.14H912.009V1015.85H916.651V1020.43ZM935.216 1018.14H937.536V1020.43H932.895V1015.85H935.216V1018.14ZM1431.83 1020.43H1427.19V1018.14H1424.87V1015.85H1427.19V1013.56H1431.83V1020.43ZM1508.41 1020.43H1503.77V1018.14H1501.45V1015.85H1503.77V1013.56H1501.45V1011.27H1508.41V1020.43ZM1526.98 1020.43H1522.34V1018.14H1526.98V1020.43ZM1837.94 1018.14H1835.62V1020.43H1833.3V1015.85H1837.94V1018.14ZM1893.64 1018.14H1891.32V1020.43H1889V1015.85H1893.64V1018.14ZM1902.92 1018.14H1905.24V1020.43H1900.6V1015.85H1902.92V1018.14ZM32.4889 1018.14H27.8476V1015.85H30.1682V1013.56H32.4889V1018.14ZM410.752 1018.14H406.111V1015.85H403.79V1013.56H410.752V1018.14ZM524.463 1015.85H526.784V1018.14H519.822V1013.56H524.463V1015.85ZM605.686 1018.14H603.365V1015.85H605.686V1018.14ZM707.794 1018.14H705.473V1015.85H707.794V1018.14ZM879.521 1015.85H881.841V1018.14H877.2V1015.85H874.879V1013.56H879.521V1015.85ZM1475.92 1018.14H1471.28V1011.27H1475.92V1018.14ZM1543.22 1015.85H1545.54V1018.14H1540.9V1013.56H1543.22V1015.85ZM113.711 1015.85H109.07V1013.56H113.711V1015.85ZM264.552 1015.85H259.911V1013.56H262.232V1011.27H264.552V1015.85ZM283.117 1013.56H285.438V1015.85H280.797V1011.27H283.117V1013.56ZM884.162 1015.85H881.841V1013.56H884.162V1015.85ZM895.765 1015.85H891.124V1013.56H895.765V1015.85ZM1007.16 1015.85H1002.51V1013.56H1007.16V1015.85ZM1046.61 1015.85H1039.64V1013.56H1046.61V1015.85ZM1079.1 1015.85H1074.45V1013.56H1079.1V1015.85ZM1269.39 1015.85H1262.43V1013.56H1269.39V1015.85ZM1547.86 1015.85H1545.54V1013.56H1547.86V1015.85ZM1854.19 1015.85H1849.55V1013.56H1851.87V1011.27H1849.55V1008.98H1854.19V1015.85ZM18.5651 1013.56H13.9238V1011.27H18.5651V1013.56ZM132.276 1013.56H129.956V1011.27H125.314V1013.56H122.994V1008.98H132.276V1013.56ZM324.889 1013.56H320.248V1011.27H324.889V1013.56ZM487.333 1013.56H482.692V1011.27H487.333V1013.56ZM575.517 1013.56H568.555V1011.27H575.517V1013.56ZM635.854 1013.56H633.533V1011.27H635.854V1013.56ZM735.641 1013.56H731V1011.27H735.641V1013.56ZM946.819 1011.27H944.498V1013.56H942.178V1008.98H946.819V1011.27ZM1151.03 1011.27H1153.36V1013.56H1148.71V1011.27H1146.39V1008.98H1151.03V1011.27ZM1255.46 1011.27H1253.14V1013.56H1250.82V1008.98H1255.46V1011.27ZM1278.67 1011.27H1276.35V1013.56H1274.03V1008.98H1278.67V1011.27ZM1496.81 1013.56H1489.85V1011.27H1496.81V1013.56ZM1540.9 1013.56H1533.94V1011.27H1540.9V1013.56ZM1677.82 1013.56H1670.86V1011.27H1677.82V1013.56ZM1740.48 1013.56H1733.51V1011.27H1740.48V1013.56ZM1782.25 1011.27H1779.93V1013.56H1777.61V1008.98H1782.25V1011.27ZM1784.57 1013.56H1782.25V1011.27H1784.57V1013.56ZM1791.53 1013.56H1786.89V1011.27H1791.53V1013.56ZM1909.88 1011.27H1907.56V1013.56H1905.24V1006.69H1909.88V1011.27ZM1926.13 1011.27H1923.81V1013.56H1921.49V1011.27H1919.16V1013.56H1916.84V1008.98H1926.13V1011.27ZM4.64127 1011.27H2.32063V1008.98H0V1006.69H4.64127V1011.27ZM76.5809 1008.98H74.2603V1011.27H71.9397V1006.69H76.5809V1008.98ZM97.4667 1008.98H95.146V1011.27H92.8254V1006.69H97.4667V1008.98ZM373.622 1008.98H371.302V1011.27H368.981V1006.69H373.622V1008.98ZM422.355 1011.27H417.714V1008.98H422.355V1011.27ZM459.486 1011.27H457.165V1008.98H459.486V1011.27ZM482.692 1011.27H480.371V1008.98H482.692V1011.27ZM640.495 1011.27H635.854V1008.98H640.495V1011.27ZM686.908 1008.98H684.587V1011.27H682.267V1006.69H686.908V1008.98ZM1424.87 1008.98H1422.55V1011.27H1420.23V999.812H1424.87V1008.98ZM1545.54 1008.98H1543.22V1011.27H1540.9V1006.69H1545.54V1008.98ZM1547.86 1011.27H1545.54V1008.98H1547.86V1011.27ZM1578.03 1008.98H1575.71V1011.27H1573.39V1006.69H1578.03V1008.98ZM90.5048 999.812H92.8254V1002.1H90.5048V1006.69H88.1841V1004.39H85.8635V1006.69H88.1841V1008.98H83.5428V1002.1H88.1841V995.23H90.5048V999.812ZM113.711 1004.39H111.39V1006.69H113.711V1008.98H109.07V1002.1H113.711V1004.39ZM157.803 1004.39H155.483V1008.98H153.162V1006.69H150.841V1004.39H153.162V1002.1H157.803V1004.39ZM468.768 1008.98H466.448V1006.69H468.768V1008.98ZM522.143 1008.98H519.822V1006.69H522.143V1008.98ZM580.159 1008.98H575.517V1006.69H580.159V1008.98ZM612.648 1008.98H610.327V1006.69H612.648V1008.98ZM663.701 1008.98H659.06V1006.69H663.701V1008.98ZM974.667 1008.98H970.025V1006.69H974.667V1008.98ZM997.873 1008.98H993.232V1006.69H997.873V1008.98ZM1777.61 1008.98H1772.96V1006.69H1777.61V1008.98ZM1826.34 1008.98H1821.7V1006.69H1826.34V1008.98ZM1877.39 1008.98H1872.75V1006.69H1877.39V1008.98ZM1893.64 1008.98H1889V1006.69H1893.64V1008.98ZM1933.09 1008.98H1928.45V1006.69H1933.09V1008.98ZM58.0159 1006.69H53.3746V999.812H58.0159V1006.69ZM329.53 1006.69H324.889V1004.39H329.53V1006.69ZM443.241 1006.69H440.921V1004.39H438.6V1002.1H443.241V1006.69ZM522.143 1004.39H519.822V1006.69H517.502V1002.1H522.143V1004.39ZM524.463 1006.69H522.143V1004.39H524.463V1006.69ZM533.746 1006.69H526.784V1004.39H533.746V1006.69ZM621.93 1006.69H619.609V1004.39H621.93V1006.69ZM633.533 1006.69H631.213V1004.39H633.533V1006.69ZM668.343 1004.39H672.984V1006.69H666.022V1002.1H668.343V1004.39ZM731 1006.69H726.359V1004.39H731V1006.69ZM949.14 999.812H951.46V1006.69H949.14V1004.39H946.819V997.521H949.14V999.812ZM1468.96 1006.69H1464.32V999.812H1468.96V1006.69ZM1515.37 1006.69H1508.41V1004.39H1515.37V1006.69ZM1540.9 1006.69H1533.94V1004.39H1540.9V1006.69ZM1652.29 1006.69H1645.33V1004.39H1652.29V1006.69ZM1712.63 1006.69H1707.99V1004.39H1712.63V1006.69ZM1766 1006.69H1759.04V1004.39H1763.68V1002.1H1766V1006.69ZM1872.75 995.23H1870.43V997.521H1872.75V1002.1H1870.43V999.812H1868.11V1002.1H1870.43V1006.69H1868.11V1004.39H1865.79V997.521H1868.11V995.23H1865.79V992.939H1872.75V995.23ZM1889 1004.39H1886.68V1006.69H1884.36V1002.1H1889V1004.39ZM4.64127 1004.39H2.32063V1002.1H0V999.812H4.64127V1004.39ZM23.2063 1004.39H20.8857V1002.1H18.5651V999.812H23.2063V1004.39ZM589.441 1004.39H587.121V1002.1H584.8V999.812H589.441V1004.39ZM663.701 1004.39H661.381V1002.1H663.701V1004.39ZM1578.03 1002.1H1575.71V1004.39H1573.39V999.812H1578.03V1002.1ZM234.384 1002.1H232.063V997.521H234.384V1002.1ZM285.438 1002.1H280.797V999.812H285.438V1002.1ZM324.889 999.812H322.568V1002.1H320.248V997.521H324.889V999.812ZM394.508 1002.1H387.546V999.812H394.508V1002.1ZM666.022 1002.1H663.701V999.812H666.022V1002.1ZM775.092 1002.1H770.451V999.812H775.092V1002.1ZM930.574 1002.1H925.933V999.812H930.574V1002.1ZM965.384 1002.1H958.422V999.812H965.384V1002.1ZM1067.49 1002.1H1065.17V999.812H1067.49V1002.1ZM1072.13 1002.1H1069.81V997.521H1072.13V1002.1ZM1169.6 1002.1H1164.96V999.812H1169.6V1002.1ZM1297.23 1002.1H1290.27V999.812H1297.23V1002.1ZM1733.51 1002.1H1728.87V999.812H1733.51V1002.1ZM1761.36 1002.1H1756.72V999.812H1761.36V1002.1ZM1782.25 1002.1H1777.61V999.812H1782.25V1002.1ZM1849.55 1002.1H1844.9V999.812H1849.55V1002.1ZM642.816 997.521H645.136V995.23H647.457V999.812H640.495V995.23H642.816V997.521ZM1202.09 997.521H1199.77V999.812H1197.45V995.23H1202.09V997.521ZM1417.91 997.521H1420.23V999.812H1413.27V997.521H1415.59V995.23H1417.91V997.521ZM1443.43 999.812H1438.79V997.521H1441.11V995.23H1443.43V999.812ZM1538.58 997.521H1540.9V999.812H1533.94V997.521H1536.26V995.23H1538.58V997.521ZM1921.49 999.812H1919.16V997.521H1916.84V995.23H1921.49V999.812ZM37.1302 997.521H34.8095V992.939H37.1302V997.521ZM584.8 995.23H580.159V997.521H577.838V992.939H584.8V995.23ZM1002.51 997.521H995.552V995.23H1002.51V997.521ZM1522.34 997.521H1520.02V995.23H1522.34V997.521ZM4.64127 995.23H0V992.939H4.64127V995.23ZM27.8476 995.23H23.2063V990.648H25.527V988.357H23.2063V986.066H27.8476V995.23ZM51.054 990.648H53.3746V995.23H48.7333V988.357H51.054V990.648ZM245.987 992.939H243.667V995.23H241.346V990.648H245.987V992.939ZM334.171 992.939H331.851V995.23H329.53V990.648H334.171V992.939ZM529.105 995.23H526.784V992.939H522.143V990.648H529.105V995.23ZM793.657 995.23H789.016V992.939H793.657V995.23ZM1048.93 992.939H1051.25V995.23H1046.61V990.648H1048.93V992.939ZM1520.02 995.23H1515.37V992.939H1520.02V995.23ZM1761.36 995.23H1756.72V992.939H1761.36V995.23ZM1849.55 995.23H1844.9V992.939H1849.55V995.23ZM88.1841 988.357H85.8635V992.939H83.5428V986.066H88.1841V988.357ZM192.613 992.939H190.292V988.357H192.613V992.939ZM264.552 992.939H259.911V990.648H264.552V992.939ZM278.476 990.648H280.797V992.939H276.156V988.357H278.476V990.648ZM485.013 990.648H487.333V992.939H482.692V988.357H485.013V990.648ZM505.898 992.939H501.257V988.357H505.898V992.939ZM552.311 990.648H554.632V992.939H549.99V988.357H552.311V990.648ZM573.197 992.939H570.876V990.648H573.197V992.939ZM782.054 988.357H779.733V992.939H775.092V986.066H782.054V988.357ZM865.597 990.648H867.917V992.939H863.276V988.357H865.597V990.648ZM1501.45 992.939H1496.81V990.648H1499.13V988.357H1501.45V992.939ZM1754.4 992.939H1752.08V990.648H1754.4V992.939ZM1763.68 992.939H1761.36V990.648H1763.68V992.939ZM1777.61 992.939H1775.29V990.648H1777.61V992.939ZM1851.87 992.939H1849.55V990.648H1851.87V992.939ZM1926.13 992.939H1923.81V990.648H1926.13V992.939ZM81.2222 990.648H78.9016V988.357H81.2222V990.648ZM136.917 990.648H134.597V988.357H136.917V990.648ZM162.444 990.648H157.803V988.357H162.444V990.648ZM176.368 990.648H171.727V988.357H176.368V990.648ZM406.111 990.648H401.47V988.357H406.111V990.648ZM413.073 990.648H410.752V988.357H413.073V990.648ZM570.876 990.648H568.555V988.357H570.876V990.648ZM995.552 990.648H990.911V988.357H995.552V990.648ZM1178.88 990.648H1174.24V988.357H1178.88V990.648ZM13.9238 988.357H9.28254V986.066H13.9238V988.357ZM120.673 986.066H122.994V988.357H118.352V983.775H120.673V986.066ZM204.216 988.357H199.575V986.066H204.216V988.357ZM222.781 988.357H218.14V986.066H222.781V988.357ZM236.705 988.357H232.063V986.066H236.705V988.357ZM262.232 986.066H264.552V988.357H259.911V983.775H262.232V986.066ZM334.171 988.357H329.53V986.066H334.171V988.357ZM368.981 988.357H364.34V986.066H368.981V988.357ZM378.263 986.066H375.943V988.357H373.622V983.775H378.263V986.066ZM399.149 988.357H394.508V986.066H399.149V988.357ZM410.752 988.357H406.111V986.066H410.752V988.357ZM436.279 988.357H431.638V986.066H436.279V988.357ZM526.784 988.357H519.822V986.066H526.784V988.357ZM538.387 988.357H536.067V986.066H533.746V983.775H538.387V988.357ZM561.594 988.357H559.273V986.066H556.952V983.775H561.594V988.357ZM661.381 988.357H656.74V986.066H661.381V988.357ZM691.549 988.357H686.908V986.066H691.549V988.357ZM726.359 988.357H721.717V986.066H726.359V988.357ZM823.825 988.357H819.184V986.066H823.825V988.357ZM837.749 988.357H833.108V986.066H837.749V988.357ZM856.314 988.357H851.673V986.066H856.314V988.357ZM1450.4 988.357H1445.76V986.066H1450.4V988.357ZM1496.81 988.357H1489.85V986.066H1496.81V988.357ZM1540.9 988.357H1533.94V986.066H1540.9V988.357ZM32.4889 986.066H27.8476V983.775H30.1682V981.484H32.4889V986.066ZM1452.72 986.066H1450.4V983.775H1452.72V986.066ZM1457.36 986.066H1455.04V983.775H1452.72V981.484H1457.36V986.066ZM143.879 983.775H139.238V981.484H143.879V983.775ZM424.676 981.484H426.997V983.775H422.355V979.192H424.676V981.484ZM946.819 983.775H942.178V981.484H946.819V983.775ZM1167.28 983.775H1162.64V981.484H1167.28V983.775ZM53.3746 981.484H44.0921V979.192H53.3746V981.484ZM109.07 979.192H106.749V981.484H104.429V976.901H109.07V979.192ZM153.162 981.484H150.841V979.192H148.521V976.901H153.162V981.484ZM176.368 981.484H174.048V979.192H171.727V976.901H176.368V981.484ZM399.149 981.484H392.187V979.192H399.149V981.484ZM501.257 979.192H498.936V981.484H496.616V974.61H501.257V979.192ZM512.86 981.484H508.219V979.192H512.86V981.484ZM559.273 981.484H556.952V979.192H554.632V974.61H559.273V981.484ZM1471.28 981.484H1464.32V979.192H1471.28V981.484ZM1526.98 981.484H1522.34V979.192H1526.98V981.484ZM1540.9 981.484H1533.94V979.192H1540.9V981.484ZM9.28254 979.192H6.9619V976.901H4.64127V972.319H9.28254V979.192ZM30.1682 979.192H27.8476V976.901H30.1682V979.192ZM76.5809 979.192H74.2603V976.901H71.9397V967.737H76.5809V979.192ZM382.905 979.192H378.263V976.901H382.905V979.192ZM475.73 979.192H473.409V976.901H471.089V974.61H475.73V979.192ZM584.8 976.901H582.479V979.192H580.159V974.61H584.8V976.901ZM1427.19 979.192H1424.87V976.901H1427.19V979.192ZM1431.83 979.192H1429.51V976.901H1427.19V974.61H1431.83V979.192ZM1496.81 979.192H1494.49V976.901H1492.17V979.192H1489.85V974.61H1496.81V979.192ZM1508.41 979.192H1506.09V976.901H1501.45V974.61H1508.41V979.192ZM32.4889 976.901H30.1682V974.61H27.8476V972.319H30.1682V970.028H27.8476V967.737H32.4889V976.901ZM99.7873 976.901H95.146V974.61H99.7873V976.901ZM336.492 974.61H338.813V976.901H334.171V972.319H336.492V974.61ZM443.241 974.61H445.562V976.901H440.921V974.61H438.6V972.319H443.241V974.61ZM508.219 976.901H503.578V974.61H508.219V976.901ZM935.216 976.901H930.574V974.61H935.216V976.901ZM122.994 974.61H120.673V972.319H118.352V970.028H122.994V974.61ZM162.444 974.61H160.124V972.319H157.803V970.028H162.444V974.61ZM185.651 972.319H187.971V974.61H183.33V970.028H185.651V972.319ZM206.536 974.61H204.216V972.319H201.895V970.028H206.536V974.61ZM364.34 974.61H359.698V972.319H364.34V974.61ZM617.289 974.61H612.648V972.319H617.289V974.61ZM696.19 974.61H691.549V972.319H696.19V974.61ZM775.092 974.61H768.13V972.319H775.092V974.61ZM872.559 974.61H867.917V972.319H872.559V974.61ZM1450.4 974.61H1445.76V967.737H1450.4V974.61ZM83.5428 972.319H78.9016V970.028H83.5428V972.319ZM640.495 970.028H638.174V972.319H635.854V967.737H640.495V970.028ZM744.924 972.319H742.603V970.028H740.282V967.737H744.924V972.319ZM1366.85 972.319H1364.53V970.028H1362.21V967.737H1366.85V972.319ZM1515.37 972.319H1513.05V970.028H1515.37V972.319ZM1533.94 970.028H1531.62V972.319H1529.3V970.028H1524.66V972.319H1522.34V967.737H1533.94V970.028ZM44.0921 970.028H37.1302V967.737H44.0921V970.028ZM1160.32 970.028H1155.68V967.737H1160.32V970.028ZM1515.37 967.737H1513.05V970.028H1508.41V965.446H1513.05V963.155H1515.37V967.737ZM4.64127 967.737H0V965.446H4.64127V967.737ZM436.279 967.737H431.638V965.446H436.279V967.737ZM461.806 967.737H457.165V965.446H459.486V963.155H461.806V967.737ZM1162.64 967.737H1160.32V965.446H1162.64V967.737ZM1362.21 967.737H1355.25V965.446H1359.89V963.155H1362.21V967.737ZM1420.23 967.737H1413.27V965.446H1417.91V963.155H1420.23V967.737ZM1475.92 967.737H1471.28V965.446H1475.92V967.737ZM1496.81 967.737H1489.85V965.446H1496.81V967.737ZM1536.26 965.446H1540.9V967.737H1533.94V963.155H1536.26V965.446ZM1046.61 965.446H1039.64V963.155H1046.61V965.446ZM1471.28 965.446H1468.96V963.155H1471.28V965.446ZM44.0921 960.864V963.155H23.2063V960.864H44.0921ZM322.568 963.155H320.248V958.573H322.568V963.155ZM686.908 963.155H682.267V960.864H686.908V963.155ZM805.26 958.573H807.581V963.155H805.26V960.864H800.619V958.573H802.94V956.282H805.26V958.573ZM847.032 963.155H842.39V960.864H847.032V963.155ZM867.917 963.155H863.276V960.864H867.917V963.155ZM888.803 960.864H891.124V963.155H886.482V958.573H888.803V960.864ZM1466.64 951.7H1471.28V953.991H1468.96V963.155H1464.32V949.408H1466.64V951.7ZM1489.85 963.155H1482.89V960.864H1489.85V963.155ZM1559.47 963.155H1547.86V960.864H1559.47V963.155ZM1587.31 963.155H1584.99V960.864H1587.31V963.155ZM276.156 960.864H273.835V956.282H276.156V960.864ZM336.492 960.864H331.851V958.573H336.492V960.864ZM359.698 960.864H355.057V958.573H357.378V956.282H359.698V960.864ZM385.225 960.864H380.584V958.573H382.905V956.282H385.225V960.864ZM422.355 958.573H424.676V960.864H417.714V958.573H420.035V956.282H422.355V958.573ZM443.241 960.864H438.6V958.573H440.921V956.282H443.241V960.864ZM543.029 958.573H545.349V960.864H540.708V956.282H543.029V958.573ZM659.06 960.864H654.419V958.573H656.74V956.282H659.06V960.864ZM765.809 960.864H761.168V958.573H765.809V960.864ZM1306.52 958.573H1308.84V956.282H1311.16V960.864H1304.2V956.282H1306.52V958.573ZM1341.33 958.573H1343.65V960.864H1336.69V958.573H1339.01V956.282H1341.33V958.573ZM1366.85 958.573H1369.17V960.864H1362.21V958.573H1364.53V956.282H1366.85V958.573ZM1443.43 960.864H1438.79V958.573H1441.11V956.282H1443.43V960.864ZM83.5428 958.573H78.9016V956.282H83.5428V958.573ZM113.711 958.573H109.07V956.282H113.711V958.573ZM206.536 958.573H201.895V956.282H206.536V958.573ZM294.721 958.573H290.079V956.282H294.721V958.573ZM406.111 958.573H401.47V956.282H406.111V958.573ZM812.222 958.573H809.901V953.991H812.222V958.573ZM44.0921 956.282H39.4508V953.991H44.0921V956.282ZM698.511 956.282H691.549V953.991H698.511V956.282ZM963.063 953.991H960.743V956.282H958.422V951.7H963.063V953.991ZM1062.85 953.991H1060.53V956.282H1058.21V951.7H1062.85V953.991ZM1190.49 953.991H1188.16V956.282H1185.84V951.7H1190.49V953.991ZM1526.98 956.282H1522.34V953.991H1526.98V956.282ZM37.1302 953.991H32.4889V951.7H34.8095V949.408H37.1302V953.991ZM498.936 951.7H501.257V953.991H496.616V949.408H498.936V951.7ZM1339.01 951.7H1341.33V949.408H1343.65V953.991H1336.69V949.408H1339.01V951.7ZM1441.11 951.7H1443.43V953.991H1438.79V949.408H1441.11V951.7ZM122.994 951.7H118.352V949.408H122.994V951.7ZM143.879 951.7H139.238V949.408H143.879V951.7ZM1095.34 951.7H1090.7V949.408H1095.34V951.7ZM1445.76 951.7H1443.43V949.408H1445.76V951.7ZM9.28254 949.408H4.64127V947.117H9.28254V949.408ZM278.476 949.408H276.156V947.117H273.835V944.826H278.476V949.408ZM642.816 949.408H638.174V947.117H642.816V949.408ZM1336.69 949.408H1329.72V947.117H1336.69V949.408ZM1348.29 949.408H1343.65V947.117H1348.29V949.408ZM1362.21 949.408H1355.25V947.117H1362.21V949.408ZM1450.4 949.408H1445.76V947.117H1450.4V949.408ZM1533.94 949.408H1529.3V947.117H1533.94V949.408ZM304.003 944.826H306.324V947.117H301.682V942.535H304.003V944.826ZM382.905 944.826H385.225V947.117H380.584V944.826H378.263V942.535H382.905V944.826ZM436.279 944.826H433.959V947.117H431.638V942.535H436.279V944.826ZM487.333 944.826H485.013V947.117H482.692V942.535H487.333V944.826ZM515.181 947.117H512.86V944.826H515.181V947.117ZM519.822 947.117H517.502V944.826H515.181V942.535H519.822V947.117ZM545.349 947.117H540.708V942.535H545.349V947.117ZM666.022 947.117H663.701V942.535H666.022V947.117ZM742.603 944.826H744.924V947.117H740.282V942.535H742.603V944.826ZM830.787 944.826H833.108V947.117H828.467V942.535H830.787V944.826ZM856.314 947.117H853.994V942.535H856.314V947.117ZM870.238 944.826H872.559V947.117H867.917V942.535H870.238V944.826ZM1176.56 947.117H1171.92V942.535H1176.56V947.117ZM1492.17 944.826H1494.49V947.117H1489.85V942.535H1492.17V944.826ZM1513.05 944.826H1515.37V947.117H1510.73V944.826H1508.41V942.535H1513.05V944.826ZM1552.5 944.826H1550.18V947.117H1547.86V942.535H1552.5V944.826ZM1496.81 944.826H1494.49V942.535H1496.81V944.826ZM9.28254 942.535H0V940.244H9.28254V942.535ZM32.4889 942.535H27.8476V940.244H32.4889V942.535ZM71.9397 942.535H67.2984V940.244H71.9397V942.535ZM199.575 942.535H194.933V940.244H199.575V942.535ZM248.308 942.535H243.667V940.244H248.308V942.535ZM257.59 942.535H252.949V940.244H257.59V942.535ZM406.111 942.535H399.149V940.244H406.111V942.535ZM731 942.535H726.359V940.244H731V942.535ZM802.94 942.535H798.298V940.244H802.94V942.535ZM912.009 942.535H909.689V940.244H907.368V937.953H912.009V942.535ZM942.178 942.535H939.857V940.244H942.178V942.535ZM963.063 940.244H960.743V942.535H958.422V937.953H963.063V940.244ZM1125.51 942.535H1120.87V940.244H1125.51V942.535ZM1420.23 942.535H1413.27V940.244H1420.23V942.535ZM134.597 940.244H129.956V937.953H132.276V935.662H134.597V940.244ZM413.073 940.244H410.752V937.953H413.073V940.244ZM417.714 940.244H415.394V937.953H413.073V935.662H417.714V940.244ZM475.73 940.244H473.409V937.953H471.089V940.244H468.768V935.662H475.73V940.244ZM505.898 937.953H503.578V940.244H501.257V935.662H505.898V937.953ZM508.219 940.244H505.898V937.953H508.219V940.244ZM865.597 937.953H867.917V940.244H863.276V935.662H865.597V937.953ZM939.857 940.244H935.216V937.953H939.857V940.244ZM1464.32 940.244H1462V937.953H1459.68V940.244H1457.36V935.662H1464.32V940.244ZM92.8254 935.662H95.146V937.953H90.5048V933.371H92.8254V935.662ZM183.33 937.953H176.368V935.662H183.33V937.953ZM1306.52 937.953H1301.88V935.662H1306.52V937.953ZM32.4889 935.662H30.1682V933.371H27.8476V931.08H30.1682V928.789H27.8476V926.498H30.1682V924.207H27.8476V921.915H32.4889V935.662ZM461.806 935.662H457.165V933.371H461.806V935.662ZM902.727 933.371H900.406V935.662H898.086V931.08H902.727V933.371ZM930.574 935.662H928.254V933.371H930.574V935.662ZM1552.5 935.662H1540.9V933.371H1552.5V935.662ZM436.279 931.08H433.959V933.371H431.638V928.789H436.279V931.08ZM621.93 933.371H619.609V931.08H614.968V928.789H621.93V933.371ZM775.092 931.08H772.771V933.371H770.451V928.789H775.092V931.08ZM928.254 933.371H923.613V931.08H928.254V933.371ZM1009.48 933.371H1007.16V931.08H1004.83V928.789H1009.48V933.371ZM1482.89 933.371H1480.56V931.08H1475.92V928.789H1482.89V933.371ZM102.108 928.789H104.429V931.08H99.7873V926.498H102.108V928.789ZM120.673 928.789H122.994V931.08H118.352V926.498H120.673V928.789ZM194.933 928.789H190.292V931.08H187.971V926.498H194.933V928.789ZM385.225 928.789H387.546V931.08H382.905V928.789H380.584V926.498H385.225V928.789ZM888.803 928.789H891.124V931.08H886.482V926.498H888.803V928.789ZM53.3746 928.789H48.7333V926.498H53.3746V928.789ZM457.165 928.789H450.203V926.498H457.165V928.789ZM487.333 928.789H482.692V926.498H487.333V928.789ZM508.219 928.789H501.257V926.498H508.219V928.789ZM807.581 928.789H800.619V926.498H807.581V928.789ZM819.184 928.789H814.543V926.498H819.184V928.789ZM1030.36 928.789H1028.04V926.498H1030.36V928.789ZM1329.72 928.789H1325.08V926.498H1329.72V928.789ZM1445.76 928.789H1438.79V926.498H1445.76V928.789ZM1475.92 928.789H1471.28V926.498H1475.92V928.789ZM1559.47 928.789H1552.5V926.498H1554.83V924.207H1552.5V921.915H1559.47V928.789ZM614.968 924.207H612.648V926.498H610.327V921.915H614.968V924.207ZM768.13 926.498H765.809V921.915H768.13V926.498ZM1028.04 926.498H1023.4V924.207H1028.04V926.498ZM1311.16 926.498H1308.84V924.207H1304.2V921.915H1311.16V926.498ZM1545.54 926.498H1543.22V924.207H1540.9V921.915H1545.54V926.498ZM81.2222 924.207H76.5809V921.915H81.2222V924.207ZM234.384 921.915H236.705V924.207H232.063V919.624H234.384V921.915ZM394.508 921.915H396.829V924.207H392.187V919.624H394.508V921.915ZM672.984 924.207H666.022V921.915H672.984V924.207ZM884.162 924.207H879.521V921.915H881.841V919.624H884.162V924.207ZM912.009 924.207H907.368V921.915H909.689V919.624H912.009V924.207ZM928.254 921.915H930.574V924.207H923.613V921.915H925.933V919.624H928.254V921.915ZM1188.16 921.915H1190.49V924.207H1185.84V919.624H1188.16V921.915ZM1336.69 924.207H1329.72V921.915H1336.69V924.207ZM1508.41 924.207H1501.45V921.915H1508.41V924.207ZM570.876 919.624H568.555V921.915H563.914V919.624H566.235V917.333H570.876V919.624ZM596.403 921.915H589.441V919.624H594.082V917.333H596.403V921.915ZM654.419 921.915H647.457V919.624H654.419V921.915ZM1443.43 921.915H1438.79V919.624H1441.11V917.333H1443.43V921.915ZM285.438 919.624H280.797V917.333H285.438V919.624ZM1023.4 919.624H1018.76V917.333H1023.4V919.624ZM1074.45 919.624H1067.49V917.333H1074.45V919.624ZM1468.96 919.624H1466.64V917.333H1468.96V919.624ZM13.9238 917.333H9.28254V915.042H13.9238V917.333ZM27.8476 917.333H23.2063V915.042H27.8476V917.333ZM53.3746 917.333H48.7333V915.042H53.3746V917.333ZM241.346 917.333H236.705V912.751H241.346V917.333ZM603.365 917.333H598.724V915.042H603.365V917.333ZM696.19 917.333H691.549V915.042H696.19V917.333ZM1004.83 915.042H1007.16V917.333H1002.51V912.751H1004.83V915.042ZM1053.57 915.042H1055.89V917.333H1051.25V912.751H1053.57V915.042ZM90.5048 915.042H88.1841V910.46H90.5048V915.042ZM139.238 912.751H141.559V915.042H136.917V910.46H139.238V912.751ZM466.448 915.042H461.806V912.751H464.127V910.46H466.448V915.042ZM624.251 915.042H619.609V912.751H624.251V915.042ZM666.022 915.042H663.701V910.46H666.022V915.042ZM744.924 915.042H740.282V912.751H742.603V910.46H744.924V915.042ZM1058.21 915.042H1055.89V912.751H1058.21V915.042ZM197.254 912.751H192.613V910.46H197.254V912.751ZM304.003 912.751H299.362V910.46H304.003V912.751ZM983.949 912.751H979.308V910.46H983.949V912.751ZM995.552 912.751H990.911V910.46H995.552V912.751ZM1299.56 912.751H1294.91V910.46H1299.56V912.751ZM27.8476 910.46H23.2063V908.169H27.8476V910.46ZM726.359 910.46H721.717V908.169H726.359V910.46ZM1051.25 908.169H1048.93V910.46H1046.61V905.878H1051.25V908.169ZM1116.23 908.169H1118.55V910.46H1111.58V908.169H1113.9V905.878H1116.23V908.169ZM95.146 899.005H97.4667V905.878H95.146V908.169H92.8254V896.714H95.146V899.005ZM1139.43 905.878H1134.79V903.587H1139.43V905.878ZM1167.28 905.878H1162.64V903.587H1167.28V905.878ZM1190.49 905.878H1183.52V903.587H1190.49V905.878ZM27.8476 903.587H23.2063V901.296H27.8476V903.587ZM62.6571 903.587H58.0159V901.296H62.6571V903.587ZM104.429 901.296H102.108V903.587H99.7873V899.005H104.429V901.296ZM190.292 901.296H192.613V903.587H187.971V899.005H190.292V901.296ZM464.127 901.296H461.806V903.587H459.486V899.005H464.127V901.296ZM485.013 901.296H482.692V903.587H480.371V899.005H485.013V901.296ZM575.517 903.587H570.876V901.296H575.517V903.587ZM710.114 903.587H705.473V901.296H710.114V903.587ZM721.717 903.587H717.076V901.296H721.717V903.587ZM837.749 903.587H833.108V901.296H837.749V903.587ZM939.857 903.587H937.536V901.296H935.216V899.005H939.857V903.587ZM744.924 901.296H742.603V899.005H740.282V896.714H744.924V901.296ZM113.711 899.005H109.07V896.714H113.711V899.005ZM132.276 899.005H127.635V896.714H132.276V899.005ZM148.521 899.005H143.879V896.714H148.521V899.005ZM245.987 899.005H241.346V896.714H245.987V899.005ZM278.476 899.005H273.835V896.714H278.476V899.005ZM308.644 899.005H304.003V896.714H308.644V899.005ZM18.5651 892.131H13.9238V896.714H9.28254V889.84H18.5651V892.131ZM155.483 896.714H150.841V894.423H155.483V896.714ZM301.682 896.714H297.041V894.423H301.682V896.714ZM589.441 896.714H584.8V894.423H589.441V896.714ZM652.098 896.714H647.457V894.423H652.098V896.714ZM740.282 896.714H735.641V894.423H740.282V896.714ZM935.216 896.714H932.895V894.423H930.574V892.131H935.216V896.714ZM621.93 894.423H619.609V889.84H621.93V894.423ZM410.752 892.131H406.111V889.84H410.752V892.131ZM837.749 892.131H833.108V889.84H837.749V892.131ZM32.4889 887.549V889.84H23.2063V887.549H32.4889ZM48.7333 889.84H46.4127V887.549H48.7333V889.84ZM58.0159 889.84H53.3746V887.549H58.0159V889.84ZM74.2603 889.84H71.9397V887.549H74.2603V889.84ZM90.5048 889.84H85.8635V887.549H90.5048V889.84ZM320.248 889.84H315.606V887.549H320.248V889.84ZM464.127 889.84H461.806V887.549H464.127V889.84ZM705.473 889.84H700.832V887.549H705.473V889.84ZM823.825 889.84H819.184V887.549H823.825V889.84ZM877.2 889.84H872.559V887.549H877.2V889.84ZM1290.27 889.84H1287.95V887.549H1290.27V889.84ZM37.1302 885.258H34.8095V887.549H32.4889V882.967H37.1302V885.258ZM67.2984 887.549H64.9778V885.258H62.6571V882.967H67.2984V887.549ZM178.689 885.258H176.368V887.549H174.048V882.967H178.689V885.258ZM387.546 887.549H382.905V885.258H387.546V887.549ZM468.768 887.549H464.127V885.258H468.768V887.549ZM473.409 885.258H475.73V887.549H471.089V882.967H473.409V885.258ZM802.94 887.549H800.619V882.967H802.94V887.549ZM1062.85 887.549H1058.21V885.258H1062.85V887.549ZM1139.43 887.549H1134.79V885.258H1139.43V887.549ZM1287.95 887.549H1283.31V885.258H1287.95V887.549ZM97.4667 885.258H95.146V882.967H97.4667V885.258ZM120.673 885.258H116.032V882.967H120.673V885.258ZM320.248 885.258H315.606V882.967H320.248V885.258ZM399.149 885.258H394.508V882.967H399.149V885.258ZM524.463 885.258H522.143V882.967H524.463V885.258ZM529.105 885.258H526.784V880.676H529.105V885.258ZM605.686 885.258H601.044V882.967H603.365V880.676H605.686V885.258ZM686.908 885.258H682.267V882.967H686.908V885.258ZM842.39 885.258H837.749V882.967H842.39V885.258ZM867.917 885.258H863.276V882.967H867.917V885.258ZM895.765 885.258H891.124V882.967H895.765V885.258ZM912.009 885.258H907.368V882.967H909.689V880.676H912.009V885.258ZM1007.16 885.258H1002.51V882.967H1007.16V885.258ZM1046.61 885.258H1039.64V882.967H1046.61V885.258ZM1195.13 885.258H1190.49V882.967H1195.13V885.258ZM1283.31 885.258H1278.67V882.967H1283.31V885.258ZM55.6952 882.967H51.054V880.676H55.6952V882.967ZM99.7873 882.967H97.4667V880.676H99.7873V882.967ZM422.355 882.967H420.035V878.385H422.355V882.967ZM580.159 882.967H575.517V880.676H580.159V882.967ZM654.419 882.967H652.098V880.676H654.419V882.967ZM789.016 882.967H784.375V880.676H786.695V878.385H789.016V882.967ZM823.825 882.967H819.184V880.676H823.825V882.967ZM986.27 882.967H983.949V880.676H986.27V882.967ZM1167.28 880.676H1160.32V882.967H1158V878.385H1167.28V880.676ZM23.2063 878.385H20.8857V880.676H18.5651V876.094H23.2063V878.385ZM27.8476 880.676H25.527V876.094H27.8476V880.676ZM64.9778 880.676H62.6571V876.094H64.9778V880.676ZM90.5048 880.676H88.1841V878.385H85.8635V876.094H90.5048V880.676ZM575.517 880.676H573.197V878.385H575.517V880.676ZM656.74 880.676H654.419V878.385H656.74V880.676ZM983.949 880.676H981.628V878.385H983.949V880.676ZM1028.04 880.676H1023.4V878.385H1028.04V880.676ZM1262.43 880.676H1255.46V878.385H1262.43V880.676ZM1343.65 880.676H1339.01V878.385H1343.65V880.676ZM111.39 878.385H106.749V876.094H111.39V878.385ZM169.406 878.385H164.765V876.094H169.406V878.385ZM573.197 878.385H570.876V876.094H573.197V878.385ZM705.473 878.385H700.832V876.094H705.473V878.385ZM976.987 876.094H979.308V878.385H974.667V873.803H976.987V876.094ZM1007.16 878.385H1002.51V876.094H1004.83V873.803H1007.16V878.385ZM1139.43 878.385H1134.79V876.094H1137.11V873.803H1139.43V878.385ZM1410.95 878.385H1406.3V876.094H1408.63V873.803H1410.95V878.385ZM11.6032 876.094H6.9619V873.803H11.6032V876.094ZM422.355 876.094H417.714V873.803H422.355V876.094ZM37.1302 873.803H34.8095V871.512H32.4889V869.221H37.1302V873.803ZM99.7873 873.803H97.4667V871.512H95.146V869.221H99.7873V873.803ZM120.673 871.512H118.352V873.803H116.032V869.221H120.673V871.512ZM990.911 873.803H986.27V871.512H990.911V873.803ZM1232.26 873.803H1227.62V871.512H1232.26V873.803ZM76.5809 871.512H71.9397V869.221H76.5809V871.512ZM951.46 871.512H949.14V869.221H946.819V866.93H951.46V871.512ZM1028.04 871.512H1025.72V869.221H1023.4V866.93H1028.04V871.512ZM1097.66 869.221H1099.98V871.512H1095.34V866.93H1097.66V869.221ZM1185.84 871.512H1183.52V869.221H1185.84V871.512ZM1190.49 871.512H1188.16V869.221H1185.84V866.93H1190.49V871.512ZM1199.77 871.512H1195.13V869.221H1197.45V866.93H1199.77V871.512ZM1269.39 869.221H1271.71V871.512H1267.07V866.93H1269.39V869.221ZM1102.3 869.221H1099.98V866.93H1102.3V869.221ZM1074.45 866.93H1067.49V864.638H1074.45V866.93ZM1095.34 866.93H1090.7V864.638H1095.34V866.93ZM1167.28 866.93H1162.64V864.638H1167.28V866.93ZM988.59 862.347H990.911V864.638H986.27V860.056H988.59V862.347ZM1123.19 862.347H1120.87V864.638H1118.55V860.056H1123.19V862.347ZM1132.47 862.347H1134.79V864.638H1127.83V862.347H1130.15V860.056H1132.47V862.347ZM1285.63 862.347H1287.95V864.638H1283.31V860.056H1285.63V862.347ZM234.384 860.056H236.705V862.347H232.063V857.765H234.384V860.056ZM1290.27 862.347H1287.95V860.056H1290.27V862.347ZM27.8476 857.765H23.2063V855.474H27.8476V857.765ZM120.673 857.765H116.032V855.474H120.673V857.765ZM206.536 857.765H204.216V855.474H206.536V857.765ZM320.248 857.765H315.606V855.474H320.248V857.765ZM1116.23 857.765H1113.9V855.474H1111.58V853.183H1116.23V857.765ZM1167.28 855.474H1162.64V853.183H1167.28V855.474ZM944.498 850.892H946.819V853.183H942.178V848.601H944.498V850.892ZM1011.8 853.183H1007.16V850.892H1009.48V848.601H1011.8V853.183ZM1095.34 853.183H1090.7V850.892H1095.34V853.183ZM1183.52 853.183H1178.88V850.892H1183.52V853.183ZM1192.81 850.892H1195.13V853.183H1190.49V848.601H1192.81V850.892ZM1234.58 853.183H1227.62V850.892H1234.58V853.183ZM1410.95 853.183H1406.3V850.892H1410.95V853.183ZM37.1302 850.892H32.4889V848.601H37.1302V850.892ZM55.6952 850.892H51.054V848.601H55.6952V850.892ZM1151.03 848.601H1148.71V850.892H1146.39V846.31H1151.03V848.601ZM1255.46 850.892H1253.14V848.601H1250.82V846.31H1255.46V850.892ZM192.613 848.601H190.292V846.31H187.971V844.019H192.613V848.601ZM1051.25 848.601H1046.61V846.31H1051.25V848.601ZM116.032 846.31H111.39V844.019H116.032V846.31ZM1294.91 846.31H1290.27V844.019H1292.59V841.728H1294.91V846.31ZM294.721 844.019H290.079V841.728H294.721V844.019ZM1067.49 841.728H1062.85V839.437H1067.49V841.728ZM1009.48 837.146H1011.8V839.437H1007.16V834.854H1009.48V837.146ZM1072.13 837.146H1069.81V839.437H1067.49V834.854H1072.13V837.146ZM1074.45 839.437H1072.13V837.146H1074.45V839.437ZM6.9619 837.146H2.32063V834.854H6.9619V837.146ZM60.3365 834.854H62.6571V837.146H58.0159V832.563H60.3365V834.854ZM95.146 837.146H90.5048V834.854H95.146V837.146ZM1062.85 834.854H1058.21V832.563H1062.85V834.854ZM932.895 832.563H930.574V830.272H932.895V832.563ZM16.2444 830.272H13.9238V825.69H16.2444V830.272ZM34.8095 827.981H37.1302V830.272H32.4889V825.69H34.8095V827.981ZM104.429 830.272H99.7873V827.981H102.108V825.69H104.429V830.272ZM299.362 830.272H297.041V825.69H299.362V830.272ZM1028.04 823.399H1025.72V825.69H1023.4V821.108H1028.04V823.399ZM1111.58 823.399H1109.26V825.69H1106.94V821.108H1111.58V823.399ZM148.521 823.399H143.879V821.108H146.2V818.817H148.521V823.399ZM308.644 821.108H310.965V823.399H306.324V818.817H308.644V821.108ZM995.552 821.108H990.911V818.817H995.552V821.108ZM1095.34 821.108H1090.7V818.817H1095.34V821.108ZM1183.52 821.108H1178.88V818.817H1183.52V821.108ZM197.254 818.817H192.613V816.526H197.254V818.817ZM1211.37 816.526H1209.05V818.817H1206.73V814.235H1211.37V816.526ZM153.162 816.526H150.841V814.235H153.162V816.526ZM150.841 814.235H148.521V811.944H150.841V814.235ZM1371.49 814.235H1366.85V811.944H1369.17V809.653H1371.49V814.235ZM109.07 811.944H104.429V809.653H109.07V811.944ZM218.14 811.944H213.498V809.653H218.14V811.944ZM1018.76 809.653H1011.8V807.361H1018.76V809.653ZM1072.13 807.361H1067.49V805.07H1069.81V802.779H1072.13V807.361ZM1436.47 805.07H1438.79V807.361H1434.15V802.779H1436.47V805.07ZM16.2444 802.779H13.9238V798.197H16.2444V802.779ZM378.263 802.779H375.943V800.488H373.622V798.197H378.263V802.779ZM394.508 802.779H392.187V800.488H394.508V802.779ZM1023.4 802.779H1018.76V800.488H1023.4V802.779ZM1162.64 802.779H1155.68V800.488H1162.64V802.779ZM104.429 800.488H99.7873V798.197H104.429V800.488ZM396.829 800.488H394.508V798.197H396.829V800.488ZM27.8476 798.197H23.2063V795.906H27.8476V798.197ZM46.4127 798.197H41.7714V795.906H46.4127V798.197ZM60.3365 798.197H55.6952V795.906H60.3365V798.197ZM157.803 798.197H153.162V795.906H157.803V798.197ZM192.613 798.197H187.971V795.906H190.292V793.615H192.613V798.197ZM222.781 798.197H218.14V795.906H222.781V798.197ZM1095.34 795.906H1090.7V793.615H1095.34V795.906ZM1436.47 791.324H1438.79V793.615H1434.15V789.033H1436.47V791.324ZM324.889 791.324H320.248V789.033H322.568V786.742H324.889V791.324ZM1278.67 789.033H1271.71V786.742H1278.67V789.033ZM1371.49 789.033H1366.85V786.742H1371.49V789.033ZM299.362 786.742H297.041V784.451H299.362V786.742ZM382.905 786.742H378.263V784.451H382.905V786.742ZM1306.52 784.451H1304.2V786.742H1299.56V784.451H1301.88V782.16H1306.52V784.451ZM11.6032 784.451H9.28254V779.869H11.6032V784.451ZM440.921 784.451H436.279V782.16H438.6V779.869H440.921V784.451ZM519.822 784.451H515.181V782.16H517.502V779.869H519.822V784.451ZM990.911 777.577H988.59V779.869H986.27V775.286H990.911V777.577ZM1007.16 777.577H1004.83V779.869H1002.51V775.286H1007.16V777.577ZM1116.23 779.869H1113.9V777.577H1111.58V775.286H1116.23V779.869ZM1155.68 779.869H1153.36V777.577H1151.03V775.286H1155.68V779.869ZM1188.16 779.869H1185.84V777.577H1183.52V775.286H1188.16V779.869ZM1058.21 775.286H1051.25V772.995H1058.21V775.286ZM1366.85 775.286H1362.21V772.995H1366.85V775.286ZM1387.74 775.286H1383.1V772.995H1387.74V775.286ZM1062.85 763.831H1058.21V761.54H1062.85V763.831ZM1183.52 763.831H1178.88V761.54H1183.52V763.831ZM18.5651 761.54H13.9238V759.249H18.5651V761.54ZM39.4508 761.54H34.8095V759.249H39.4508V761.54ZM1109.26 759.249H1111.58V761.54H1106.94V756.958H1109.26V759.249ZM1162.64 756.958H1158V754.667H1162.64V756.958ZM1106.94 752.376H1104.62V754.667H1102.3V750.085H1106.94V752.376ZM1287.95 754.667H1285.63V752.376H1283.31V750.085H1287.95V754.667ZM23.2063 747.793H18.5651V745.502H23.2063V747.793ZM1055.89 747.793H1053.57V745.502H1051.25V743.211H1055.89V747.793ZM1276.35 747.793H1274.03V745.502H1271.71V743.211H1276.35V747.793ZM81.2222 745.502H78.9016V740.92H81.2222V745.502ZM160.124 743.211H155.483V740.92H160.124V743.211ZM1046.61 738.629H1039.64V736.338H1046.61V738.629ZM1271.71 731.756H1267.07V729.465H1271.71V731.756ZM1155.68 729.465H1151.03V727.174H1153.36V724.883H1155.68V729.465ZM1000.19 724.883H995.552V722.592H1000.19V724.883ZM1072.13 718.009H1067.49V715.718H1072.13V718.009ZM1171.92 718.009H1167.28V715.718H1171.92V718.009ZM1299.56 718.009H1294.91V715.718H1299.56V718.009ZM1206.73 713.427H1204.41V715.718H1202.09V711.136H1206.73V713.427ZM1023.4 704.263H1018.76V701.972H1023.4V704.263ZM1051.25 704.263H1046.61V701.972H1051.25V704.263ZM1074.45 704.263H1067.49V701.972H1074.45V704.263ZM1415.59 699.681H1410.95V697.39H1415.59V699.681ZM1011.8 697.39H1007.16V695.099H1011.8V697.39ZM1039.64 697.39H1035V695.099H1037.32V692.808H1039.64V697.39ZM1002.51 695.099H1000.19V692.808H1002.51V695.099ZM1000.19 692.808H995.552V690.516H1000.19V692.808ZM1139.43 690.516H1134.79V688.225H1137.11V685.934H1139.43V690.516ZM995.552 685.934H990.911V683.643H995.552V685.934ZM1023.4 685.934H1018.76V683.643H1023.4V685.934ZM1039.64 685.934H1035V683.643H1039.64V685.934ZM1299.56 685.934H1294.91V683.643H1299.56V685.934ZM1132.47 681.352H1134.79V683.643H1127.83V681.352H1130.15V679.061H1132.47V681.352ZM1181.2 681.352H1183.52V683.643H1178.88V679.061H1181.2V681.352ZM1116.23 679.061H1111.58V676.77H1116.23V679.061ZM1167.28 679.061H1162.64V676.77H1167.28V679.061ZM1093.02 674.479H1095.34V676.77H1090.7V672.188H1093.02V674.479ZM1104.62 674.479H1106.94V676.77H1102.3V672.188H1104.62V674.479ZM1408.63 674.479H1410.95V676.77H1406.3V672.188H1408.63V674.479ZM1162.64 672.188H1155.68V669.897H1162.64V672.188ZM1227.62 672.188H1222.97V669.897H1227.62V672.188ZM1250.82 667.606H1248.5V669.897H1246.18V665.315H1250.82V667.606ZM1278.67 667.606H1276.35V669.897H1274.03V665.315H1278.67V667.606ZM1299.56 669.897H1297.23V667.606H1294.91V665.315H1299.56V669.897ZM1051.25 665.315H1046.61V663.023H1051.25V665.315ZM1046.61 658.441H1039.64V656.15H1046.61V658.441ZM1171.92 651.568H1167.28V649.277H1169.6V646.986H1171.92V651.568ZM1023.4 646.986H1018.76V644.695H1023.4V646.986ZM1276.35 642.404H1278.67V644.695H1274.03V640.113H1276.35V642.404ZM1369.17 642.404H1371.49V644.695H1366.85V640.113H1369.17V642.404ZM1090.7 640.113H1083.74V637.822H1090.7V640.113ZM1062.85 633.239H1055.89V630.948H1062.85V633.239ZM1139.43 633.239H1134.79V630.948H1139.43V633.239ZM1299.56 633.239H1294.91V630.948H1299.56V633.239ZM1183.52 630.948H1181.2V628.657H1178.88V626.366H1183.52V630.948ZM1278.67 628.657H1276.35V630.948H1274.03V626.366H1278.67V628.657ZM1276.35 619.493H1271.71V617.202H1276.35V619.493ZM1278.67 617.202H1276.35V614.911H1278.67V617.202ZM1055.89 614.911H1051.25V612.62H1055.89V614.911ZM1123.19 614.911H1118.55V612.62H1123.19V614.911ZM1306.52 614.911H1301.88V612.62H1306.52V614.911ZM1160.32 610.329H1162.64V612.62H1158V608.038H1160.32V610.329ZM1183.52 601.164H1178.88V598.873H1183.52V601.164ZM1044.29 594.291H1041.96V592H1044.29V594.291Z" fill="#575757"/>
<path d="M1102.3 1025.01H1099.98V1022.72H1097.66V1027.31H1102.3V1025.01Z" fill="#575757"/>
<path d="M1118.55 1027.31H1120.87V1022.72H1116.23V1025.01H1118.55V1027.31Z" fill="#575757"/>
<path d="M1120.87 1018.14H1123.19V1013.56H1116.23V1015.85H1120.87V1018.14Z" fill="#575757"/>
<path d="M1102.3 1015.85H1106.94V1013.56H1102.3V1015.85Z" fill="#575757"/>
<path d="M1099.98 1006.69H1097.66V1004.39H1095.34V1008.98H1099.98V1006.69Z" fill="#575757"/>
<path d="M1111.58 1002.1H1116.23V999.812H1111.58V1002.1Z" fill="#575757"/>
<path d="M1099.98 997.521H1102.3V995.23H1097.66V999.812H1099.98V997.521Z" fill="#575757"/>
<path d="M1086.06 990.648H1090.7V988.357H1086.06V990.648Z" fill="#575757"/>
<path d="M1088.38 983.775H1095.34V981.484H1088.38V983.775Z" fill="#575757"/>
<path d="M1123.19 983.775H1127.83V981.484H1123.19V983.775Z" fill="#575757"/>
<path d="M1113.9 970.028H1116.23V967.737H1113.9V970.028Z" fill="#575757"/>
<path d="M1213.69 965.446H1211.37V963.155H1209.05V967.737H1213.69V965.446Z" fill="#575757"/>
<path d="M1229.94 967.737H1232.26V963.155H1227.62V965.446H1229.94V967.737Z" fill="#575757"/>
<path d="M1232.26 958.573H1234.58V953.991H1227.62V956.282H1232.26V958.573Z" fill="#575757"/>
<path d="M1213.69 956.282H1218.33V953.991H1213.69V956.282Z" fill="#575757"/>
<path d="M1211.37 947.117H1209.05V944.826H1206.73V949.408H1211.37V947.117Z" fill="#575757"/>
<path d="M1222.97 942.535H1227.62V940.244H1222.97V942.535Z" fill="#575757"/>
<path d="M1211.37 937.953H1213.69V935.662H1209.05V940.244H1211.37V937.953Z" fill="#575757"/>
<path d="M1197.45 931.08H1202.09V928.789H1197.45V931.08Z" fill="#575757"/>
<path d="M1199.77 924.207H1206.73V921.915H1199.77V924.207Z" fill="#575757"/>
<path d="M1234.58 924.207H1239.22V921.915H1234.58V924.207Z" fill="#575757"/>
<path d="M1225.3 910.46H1227.62V908.169H1225.3V910.46Z" fill="#575757"/>
<path d="M1218.33 1047.92H1216.01V1045.63H1213.69V1050.22H1218.33V1047.92Z" fill="#575757"/>
<path d="M1234.58 1050.22H1236.9V1045.63H1232.26V1047.92H1234.58V1050.22Z" fill="#575757"/>
<path d="M1236.9 1041.05H1239.22V1036.47H1232.26V1038.76H1236.9V1041.05Z" fill="#575757"/>
<path d="M1218.33 1038.76H1222.97V1036.47H1218.33V1038.76Z" fill="#575757"/>
<path d="M1216.01 1029.6H1213.69V1027.31H1211.37V1031.89H1216.01V1029.6Z" fill="#575757"/>
<path d="M1227.62 1025.01H1232.26V1022.72H1227.62V1025.01Z" fill="#575757"/>
<path d="M1216.01 1020.43H1218.33V1018.14H1213.69V1022.72H1216.01V1020.43Z" fill="#575757"/>
<path d="M1202.09 1013.56H1206.73V1011.27H1202.09V1013.56Z" fill="#575757"/>
<path d="M1204.41 1006.69H1211.37V1004.39H1204.41V1006.69Z" fill="#575757"/>
<path d="M1239.22 1006.69H1243.86V1004.39H1239.22V1006.69Z" fill="#575757"/>
<path d="M1229.94 992.939H1232.26V990.648H1229.94V992.939Z" fill="#575757"/>
<path d="M1345.97 1041.05H1343.65V1038.76H1341.33V1043.34H1345.97V1041.05Z" fill="#575757"/>
<path d="M1362.21 1043.34H1364.53V1038.76H1359.89V1041.05H1362.21V1043.34Z" fill="#575757"/>
<path d="M1364.53 1034.18H1366.85V1029.6H1359.89V1031.89H1364.53V1034.18Z" fill="#575757"/>
<path d="M1345.97 1031.89H1350.61V1029.6H1345.97V1031.89Z" fill="#575757"/>
<path d="M1343.65 1022.72H1341.33V1020.43H1339.01V1025.01H1343.65V1022.72Z" fill="#575757"/>
<path d="M1355.25 1018.14H1359.89V1015.85H1355.25V1018.14Z" fill="#575757"/>
<path d="M1343.65 1013.56H1345.97V1011.27H1341.33V1015.85H1343.65V1013.56Z" fill="#575757"/>
<path d="M1329.72 1006.69H1334.36V1004.39H1329.72V1006.69Z" fill="#575757"/>
<path d="M1332.04 999.812H1339.01V997.521H1332.04V999.812Z" fill="#575757"/>
<path d="M1366.85 999.812H1371.5V997.521H1366.85V999.812Z" fill="#575757"/>
<path d="M1357.57 986.066H1359.89V983.775H1357.57V986.066Z" fill="#575757"/>
<path d="M1260.1 988.357H1257.78V986.066H1255.46V990.648H1260.1V988.357Z" fill="#575757"/>
<path d="M1276.35 990.648H1278.67V986.066H1274.03V988.357H1276.35V990.648Z" fill="#575757"/>
<path d="M1278.67 981.484H1280.99V976.901H1274.03V979.192H1278.67V981.484Z" fill="#575757"/>
<path d="M1260.1 979.192H1264.75V976.901H1260.1V979.192Z" fill="#575757"/>
<path d="M1257.78 970.028H1255.46V967.737H1253.14V972.319H1257.78V970.028Z" fill="#575757"/>
<path d="M1269.39 965.446H1274.03V963.155H1269.39V965.446Z" fill="#575757"/>
<path d="M1257.78 960.864H1260.1V958.573H1255.46V963.155H1257.78V960.864Z" fill="#575757"/>
<path d="M1243.86 953.991H1248.5V951.7H1243.86V953.991Z" fill="#575757"/>
<path d="M1246.18 947.117H1253.14V944.826H1246.18V947.117Z" fill="#575757"/>
<path d="M1280.99 947.117H1285.63V944.826H1280.99V947.117Z" fill="#575757"/>
<path d="M1271.71 933.371H1274.03V931.08H1271.71V933.371Z" fill="#575757"/>
<path d="M1401.66 1002.1H1399.34V999.812H1397.02V1004.39H1401.66V1002.1Z" fill="#575757"/>
<path d="M1401.66 992.939H1403.98V990.648H1399.34V995.23H1401.66V992.939Z" fill="#575757"/>
<path d="M1387.74 986.066H1392.38V983.775H1387.74V986.066Z" fill="#575757"/>
<path d="M1390.06 979.192H1397.02V976.901H1390.06V979.192Z" fill="#575757"/>
<path d="M1413.27 1060.7H1410.95V1058.41H1408.63V1062.99H1413.27V1060.7Z" fill="#575757"/>
<path d="M1413.27 1051.54H1415.59V1049.25H1410.95V1053.83H1413.27V1051.54Z" fill="#575757"/>
<path d="M1399.34 1044.66H1403.98V1042.37H1399.34V1044.66Z" fill="#575757"/>
<path d="M1401.66 1037.79H1408.63V1035.5H1401.66V1037.79Z" fill="#575757"/>
<path d="M1387.74 1028.63H1390.06V1026.34H1385.42V1030.92H1387.74V1028.63Z" fill="#575757"/>
<path d="M1373.82 1021.75H1378.46V1019.46H1373.82V1021.75Z" fill="#575757"/>
<path d="M1376.14 1014.88H1383.1V1012.59H1376.14V1014.88Z" fill="#575757"/>
<path d="M1336.69 1076.54H1339.01V1074.25H1334.36V1078.83H1336.69V1076.54Z" fill="#575757"/>
<path d="M1322.76 1069.66H1327.4V1067.37H1322.76V1069.66Z" fill="#575757"/>
<path d="M1325.08 1062.79H1332.04V1060.5H1325.08V1062.79Z" fill="#575757"/>
<path d="M1304.2 1051.34H1306.52V1049.04H1301.88V1053.63H1304.2V1051.34Z" fill="#575757"/>
<path d="M1290.27 1044.46H1294.91V1042.17H1290.27V1044.46Z" fill="#575757"/>
<path d="M1292.59 1037.59H1299.56V1035.3H1292.59V1037.59Z" fill="#575757"/>
<path d="M1311.16 1031.89H1313.48V1029.6H1308.84V1034.18H1311.16V1031.89Z" fill="#575757"/>
<path d="M1297.23 1025.01H1301.88V1022.72H1297.23V1025.01Z" fill="#575757"/>
<path d="M1299.56 1018.14H1306.52V1015.85H1299.56V1018.14Z" fill="#575757"/>
<path d="M1318.12 992.939H1320.44V990.648H1315.8V995.23H1318.12V992.939Z" fill="#575757"/>
<path d="M1304.2 986.066H1308.84V983.775H1304.2V986.066Z" fill="#575757"/>
<path d="M1306.52 979.193H1313.48V976.901H1306.52V979.193Z" fill="#575757"/>
<path d="M1594.28 1038.76H1605.88V1036.47H1594.28V1038.76Z" fill="#575757"/>
<path d="M1624.44 1034.18H1622.12V1031.89H1619.8V1036.47H1624.44V1034.18Z" fill="#575757"/>
<path d="M1594.28 1029.6H1598.92V1022.72H1594.28V1029.6Z" fill="#575757"/>
<path d="M1612.84 1025.01H1619.8V1022.72H1612.84V1025.01Z" fill="#575757"/>
<path d="M1629.09 1084.58H1640.69V1082.29H1629.09V1084.58Z" fill="#575757"/>
<path d="M1659.25 1080H1656.93V1077.71H1654.61V1082.29H1659.25V1080Z" fill="#575757"/>
<path d="M1629.09 1075.42H1633.73V1068.54H1629.09V1075.42Z" fill="#575757"/>
<path d="M1647.65 1070.84H1654.61V1068.54H1647.65V1070.84Z" fill="#575757"/>
<path d="M1587.31 992.939H1598.92V990.648H1587.31V992.939Z" fill="#575757"/>
<path d="M1617.48 988.357H1615.16V986.066H1612.84V990.648H1617.48V988.357Z" fill="#575757"/>
<path d="M1587.31 983.775H1591.96V976.901H1587.31V983.775Z" fill="#575757"/>
<path d="M1605.88 979.192H1612.84V976.901H1605.88V979.192Z" fill="#575757"/>
<path d="M1689.42 1018.14H1701.03V1015.85H1689.42V1018.14Z" fill="#575757"/>
<path d="M1719.59 1013.56H1717.27V1011.27H1714.95V1015.85H1719.59V1013.56Z" fill="#575757"/>
<path d="M1689.42 1008.98H1694.06V1002.1H1689.42V1008.98Z" fill="#575757"/>
<path d="M1707.99 1004.39H1714.95V1002.1H1707.99L1707.99 1004.39Z" fill="#575757"/>
<path d="M997.873 979.192H1009.48V976.901H997.873V979.192Z" fill="#575757"/>
<path d="M1028.04 974.61H1025.72V972.319H1023.4V976.901H1028.04V974.61Z" fill="#575757"/>
<path d="M997.873 970.028H1002.51V963.155H997.873V970.028Z" fill="#575757"/>
<path d="M1016.44 965.446H1023.4V963.155H1016.44L1016.44 965.446Z" fill="#575757"/>
<path d="M1007.16 1054.8H1018.76V1052.51H1007.16V1054.8Z" fill="#575757"/>
<path d="M1037.32 1050.22H1035V1047.92H1032.68V1052.51H1037.32V1050.22Z" fill="#575757"/>
<path d="M1007.16 1045.63H1011.8V1038.76H1007.16V1045.63Z" fill="#575757"/>
<path d="M1025.72 1041.05H1032.68V1038.76H1025.72L1025.72 1041.05Z" fill="#575757"/>
<path d="M364.34 860.056H375.943V857.765H364.34V860.056Z" fill="#575757"/>
<path d="M394.508 855.474H392.187V853.183H389.867V857.765H394.508V855.474Z" fill="#575757"/>
<path d="M364.34 850.892H368.981V844.019H364.34V850.892Z" fill="#575757"/>
<path d="M382.905 846.31H389.867V844.019H382.905L382.905 846.31Z" fill="#575757"/>
<path d="M338.813 937.953H350.416V935.662H338.813V937.953Z" fill="#575757"/>
<path d="M368.981 933.371H366.66V931.08H364.34V935.662H368.981V933.371Z" fill="#575757"/>
<path d="M338.813 928.789H343.454V921.915H338.813V928.789Z" fill="#575757"/>
<path d="M357.378 924.207H364.34V921.915H357.378L357.378 924.207Z" fill="#575757"/>
<path d="M48.7333 727.174H60.3365V724.883H48.7333V727.174Z" fill="#575757"/>
<path d="M78.9015 722.592H76.581V720.3H74.2603V724.883H78.9015V722.592Z" fill="#575757"/>
<path d="M48.7333 718.009H53.3746V711.136H48.7333V718.009Z" fill="#575757"/>
<path d="M67.2983 713.427H74.2603V711.136H67.2984L67.2983 713.427Z" fill="#575757"/>
<path d="M884.162 850.892H895.765V848.601H884.162V850.892Z" fill="#575757"/>
<path d="M914.33 846.31H912.01V844.019H909.689V848.601H914.33V846.31Z" fill="#575757"/>
<path d="M884.162 841.728H888.803V834.854H884.162V841.728Z" fill="#575757"/>
<path d="M902.727 837.146H909.689V834.854H902.727L902.727 837.146Z" fill="#575757"/>
<path d="M944.498 821.108H956.102V818.817H944.498V821.108Z" fill="#575757"/>
<path d="M974.667 816.526H972.346V814.235H970.025V818.817H974.667V816.526Z" fill="#575757"/>
<path d="M944.498 811.944H949.14V805.07H944.498V811.944Z" fill="#575757"/>
<path d="M963.063 807.362H970.025V805.07H963.063L963.063 807.362Z" fill="#575757"/>
<path d="M1455.04 903.587H1466.64V901.296H1455.04V903.587Z" fill="#575757"/>
<path d="M1485.21 899.005H1482.89V896.714H1480.56V901.296H1485.21V899.005Z" fill="#575757"/>
<path d="M1455.04 894.423H1459.68V887.549H1455.04V894.423Z" fill="#575757"/>
<path d="M1473.6 889.84H1480.56V887.549H1473.6L1473.6 889.84Z" fill="#575757"/>
<path d="M1355.25 738.629H1366.85V736.338H1355.25V738.629Z" fill="#575757"/>
<path d="M1385.42 734.047H1383.1V731.756H1380.78V736.338H1385.42V734.047Z" fill="#575757"/>
<path d="M1355.25 729.465H1359.89V722.592H1355.25V729.465Z" fill="#575757"/>
<path d="M1373.82 724.883H1380.78V722.592H1373.82L1373.82 724.883Z" fill="#575757"/>
<path d="M1373.82 937.953H1385.42V935.662H1373.82V937.953Z" fill="#575757"/>
<path d="M1403.98 933.371H1401.66V931.08H1399.34V935.662H1403.98V933.371Z" fill="#575757"/>
<path d="M1373.82 928.789H1378.46V921.915H1373.82V928.789Z" fill="#575757"/>
<path d="M1392.38 924.207H1399.34V921.915H1392.38L1392.38 924.207Z" fill="#575757"/>
<path d="M1355.25 885.258H1366.85V882.967H1355.25V885.258Z" fill="#575757"/>
<path d="M1385.42 880.676H1383.1V878.385H1380.78V882.967H1385.42V880.676Z" fill="#575757"/>
<path d="M1355.25 876.094H1359.89V869.221H1355.25V876.094Z" fill="#575757"/>
<path d="M1373.82 871.512H1380.78V869.221H1373.82L1373.82 871.512Z" fill="#575757"/>
<path d="M1241.54 805.07H1253.14V802.779H1241.54V805.07Z" fill="#575757"/>
<path d="M1271.71 800.488H1269.39V798.197H1267.07V802.779H1271.71V800.488Z" fill="#575757"/>
<path d="M1241.54 795.906H1246.18V789.033H1241.54V795.906Z" fill="#575757"/>
<path d="M1260.1 791.324H1267.07V789.033H1260.1L1260.1 791.324Z" fill="#575757"/>
<path d="M1037.32 1050.22H1035V1047.92H1032.68V1052.51H1037.32V1050.22Z" fill="#575757"/>
<path d="M1025.72 1041.05H1032.68V1038.76H1025.72L1025.72 1041.05Z" fill="#575757"/>
<path d="M1041.89 1046.75H1044.21V1049.04H1046.53V1044.46H1041.89V1046.75Z" fill="#575757"/>
<path d="M1025.64 1044.46H1023.32V1049.04H1027.96V1046.75H1025.64V1044.46Z" fill="#575757"/>
<path d="M1023.32 1053.62H1021V1058.2H1027.96V1055.91H1023.32V1053.62Z" fill="#575757"/>
<path d="M1041.89 1055.91H1037.24V1058.2H1041.89V1055.91Z" fill="#575757"/>
<path d="M1044.21 1065.08H1046.53V1067.37H1048.85V1062.78H1044.21V1065.08Z" fill="#575757"/>
<path d="M1032.6 1069.66H1027.96V1071.95H1032.6V1069.66Z" fill="#575757"/>
<path d="M1044.21 1074.24H1041.89V1076.53H1046.53V1071.95H1044.21V1074.24Z" fill="#575757"/>
<path d="M1023.89 1064.75H1026.21V1067.04H1028.53V1062.46H1023.89V1064.75Z" fill="#575757"/>
<path d="M1007.64 1062.46H1005.32V1067.04H1009.96V1064.75H1007.64V1062.46Z" fill="#575757"/>
<path d="M1005.32 1071.62H1003V1076.2H1009.96V1073.91H1005.32V1071.62Z" fill="#575757"/>
<path d="M1023.89 1073.91H1019.24V1076.2H1023.89V1073.91Z" fill="#575757"/>
<path d="M1026.21 1083.08H1028.53V1085.37H1030.85V1080.78H1026.21V1083.08Z" fill="#575757"/>
<path d="M1014.6 1087.66H1009.96V1089.95H1014.6V1087.66Z" fill="#575757"/>
<path d="M1026.21 1092.24H1023.89V1094.53H1028.53V1089.95H1026.21V1092.24Z" fill="#575757"/>
<path d="M1117.89 1071.75H1120.21V1074.04H1122.53V1069.46H1117.89V1071.75Z" fill="#575757"/>
<path d="M1101.64 1069.46H1099.32V1074.04H1103.96V1071.75H1101.64V1069.46Z" fill="#575757"/>
<path d="M1099.32 1078.62H1097V1083.2H1103.96V1080.91H1099.32V1078.62Z" fill="#575757"/>
<path d="M1117.89 1080.91H1113.24V1083.2H1117.89V1080.91Z" fill="#575757"/>
<path d="M1120.21 1090.08H1122.53V1092.37H1124.85V1087.78H1120.21V1090.08Z" fill="#575757"/>
<path d="M1108.6 1094.66H1103.96V1096.95H1108.6V1094.66Z" fill="#575757"/>
<path d="M1120.21 1099.24H1117.89V1101.53H1122.53V1096.95H1120.21V1099.24Z" fill="#575757"/>
</g>
<defs>
<clipPath id="clip0_961_157488">
<rect width="1920" height="488" fill="white" transform="translate(0 592)"/>
</clipPath>
</defs>
</svg>
